<svg width="16" height="16" viewBox="0 0 16 16" fill="none" xmlns="http://www.w3.org/2000/svg">
<path d="M4 13.3125V2H8.5C10.9922 2 12.2578 3.20312 12.25 4.90625C12.2578 6.23438 11.3828 7.07031 10.2188 7.32812V7.4375C11.4922 7.5 12.6953 8.51562 12.7031 10.1875C12.6953 11.9844 11.3516 13.3125 8.79688 13.3125H4ZM6.34375 11.375H8.32812C9.6875 11.3828 10.2734 10.8203 10.2656 9.96875C10.2734 9.01562 9.54688 8.34375 8.39062 8.34375H6.34375V11.375ZM6.34375 6.73438H8.15625C9.14062 6.74219 9.88281 6.1875 9.875 5.28125C9.88281 4.46094 9.27344 3.90625 8.20312 3.90625H6.34375V6.73438Z" fill="#282828"/>
</svg>
