<svg width="25" height="24" viewBox="0 0 25 24" fill="none" xmlns="http://www.w3.org/2000/svg">
<path d="M20 5.25H17.4012L16.1234 3.33375C16.055 3.23114 15.9623 3.147 15.8535 3.08879C15.7448 3.03057 15.6233 3.00007 15.5 3H9.5C9.37665 3.00007 9.25522 3.03057 9.14648 3.08879C9.03773 3.147 8.94502 3.23114 8.87656 3.33375L7.59781 5.25H5C4.40326 5.25 3.83097 5.48705 3.40901 5.90901C2.98705 6.33097 2.75 6.90326 2.75 7.5V18C2.75 18.5967 2.98705 19.169 3.40901 19.591C3.83097 20.0129 4.40326 20.25 5 20.25H20C20.5967 20.25 21.169 20.0129 21.591 19.591C22.0129 19.169 22.25 18.5967 22.25 18V7.5C22.25 6.90326 22.0129 6.33097 21.591 5.90901C21.169 5.48705 20.5967 5.25 20 5.25ZM15.875 12.375C15.875 13.0425 15.6771 13.695 15.3062 14.25C14.9354 14.8051 14.4083 15.2376 13.7916 15.4931C13.1749 15.7485 12.4963 15.8154 11.8416 15.6852C11.1869 15.5549 10.5855 15.2335 10.1135 14.7615C9.64151 14.2895 9.32007 13.6881 9.18985 13.0334C9.05962 12.3787 9.12646 11.7001 9.38191 11.0834C9.63735 10.4667 10.0699 9.93964 10.625 9.56879C11.18 9.19794 11.8325 9 12.5 9C13.3951 9 14.2535 9.35558 14.8865 9.98851C15.5194 10.6214 15.875 11.4799 15.875 12.375Z" fill="#FF9029"/>
</svg>
