<svg width="24" height="25" viewBox="0 0 24 25" fill="none" xmlns="http://www.w3.org/2000/svg">
<path d="M12.3604 4.5C6.58038 4.5 2.64438 10.357 4.82438 15.71L5.75738 17.998C5.79812 18.0978 5.80553 18.2081 5.7785 18.3124C5.75147 18.4167 5.69144 18.5095 5.60738 18.577L3.63438 20.16C3.5536 20.2248 3.49494 20.3131 3.4665 20.4127C3.43805 20.5122 3.44123 20.6182 3.47558 20.7159C3.50994 20.8136 3.57378 20.8982 3.6583 20.958C3.74281 21.0179 3.84382 21.05 3.94738 21.05H11.7674C12.9142 21.0501 14.0497 20.8244 15.1093 20.3856C16.1688 19.9468 17.1315 19.3037 17.9425 18.4928C18.7534 17.682 19.3967 16.7193 19.8356 15.6598C20.2745 14.6003 20.5004 13.4648 20.5004 12.318C20.5004 8 17.0004 4.5 12.6824 4.5H12.3604Z" fill="#282828"/>
</svg>
