<svg width="20" height="21" viewBox="0 0 20 21" fill="none" xmlns="http://www.w3.org/2000/svg">
<g clip-path="url(#clip0_1409_14120)">
<path d="M10.0007 18.5166C9.87799 18.5162 9.75882 18.4752 9.66185 18.3999C6.57296 15.9999 4.44518 13.9333 2.9563 11.8944C1.0563 9.28883 0.622962 6.88328 1.66741 4.74439C2.41185 3.21661 4.55074 1.96661 7.05074 2.69439C8.24271 3.03869 9.28268 3.77705 10.0007 4.78883C10.7188 3.77705 11.7588 3.03869 12.9507 2.69439C15.4452 1.97772 17.5896 3.21661 18.3341 4.74439C19.3785 6.88328 18.9452 9.28883 17.0452 11.8944C15.5563 13.9333 13.4285 15.9999 10.3396 18.3999C10.2427 18.4752 10.1235 18.5162 10.0007 18.5166ZM5.62852 3.59994C5.03366 3.57679 4.44372 3.71608 3.92204 4.00286C3.40036 4.28964 2.96663 4.71308 2.66741 5.22772C1.8063 6.99439 2.19518 8.96106 3.8563 11.2333C5.62161 13.5103 7.68875 15.5363 10.0007 17.2555C12.3124 15.538 14.3795 13.5139 16.1452 11.2388C17.8118 8.96106 18.1952 6.99439 17.3341 5.23328C16.7785 4.12217 15.1119 3.23883 13.2563 3.76106C12.6613 3.93689 12.1097 4.23534 11.6371 4.63721C11.1644 5.03907 10.7811 5.53545 10.5119 6.09439C10.47 6.19628 10.3988 6.28344 10.3073 6.34477C10.2158 6.4061 10.1081 6.43885 9.99796 6.43885C9.88781 6.43885 9.78014 6.4061 9.68863 6.34477C9.59713 6.28344 9.52593 6.19628 9.48407 6.09439C9.21684 5.53405 8.8342 5.03652 8.36123 4.6344C7.88827 4.23228 7.33566 3.93467 6.73963 3.76106C6.3785 3.65617 6.00456 3.60195 5.62852 3.59994Z" fill="#282828"/>
</g>
<defs>
<clipPath id="clip0_1409_14120">
<rect width="20" height="20" fill="white" transform="translate(0 0.5)"/>
</clipPath>
</defs>
</svg>
