<svg width="16" height="16" viewBox="0 0 16 16" fill="none" xmlns="http://www.w3.org/2000/svg">
<path d="M6.856 12L8.568 3.408C8.61067 3.17333 8.50933 3.01867 8.264 2.944C8.02933 2.86933 7.71467 2.832 7.32 2.832H7.096L7.272 2H11.928L11.736 2.832H11.512C11.1387 2.832 10.8133 2.864 10.536 2.928C10.2587 2.992 10.0987 3.136 10.056 3.36L8.344 11.952C8.30133 12.1867 8.39733 12.3413 8.632 12.416C8.87733 12.4907 9.19733 12.528 9.592 12.528H9.816L9.64 13.36H5L5.176 12.528H5.4C5.784 12.528 6.10933 12.496 6.376 12.432C6.65333 12.3573 6.81333 12.2133 6.856 12Z" fill="#282828"/>
</svg>
