<svg width="71" height="50" viewBox="0 0 71 50" fill="none" xmlns="http://www.w3.org/2000/svg">
<path d="M38.2228 0C31.0893 0 24.8787 3.93276 21.6302 9.74551C19.6138 8.72936 17.336 8.15195 14.924 8.15195C6.68114 8.15422 0 14.8354 0 23.076C0 31.3166 6.68114 38 14.924 38C15.0581 38 15.19 37.9932 15.3241 37.9909V38H37.8159V37.9886C37.9523 37.9909 38.0864 38 38.2251 38C48.7185 38 57.2251 29.4934 57.2251 19C57.2251 8.50658 48.7162 0 38.2228 0Z" fill="#A4A6AA"/>
<g clip-path="url(#clip0_977_1058)">
<path d="M51.2238 12C44.0902 12 37.8797 15.9328 34.6312 21.7455C32.6148 20.7294 30.3369 20.1519 27.925 20.1519C19.6821 20.1542 13.001 26.8354 13.001 35.076C13.001 43.3166 19.6821 50 27.925 50C28.0591 50 28.191 49.9932 28.3251 49.9909V50H50.8168V49.9886C50.9532 49.9909 51.0874 50 51.226 50C61.7194 50 70.226 41.4934 70.226 31C70.226 20.5066 61.7172 12 51.2238 12Z" fill="#F2F2F7"/>
</g>
<defs>
<clipPath id="clip0_977_1058">
<rect width="57.2228" height="38" fill="white" transform="translate(13 12)"/>
</clipPath>
</defs>
</svg>
