<svg width="59" height="59" viewBox="0 0 59 59" fill="none" xmlns="http://www.w3.org/2000/svg">
<g clip-path="url(#clip0_947_745)">
<path d="M8.75781 27.7715H1.72852C0.773883 27.7715 0 28.5454 0 29.5C0 30.4546 0.773883 31.2285 1.72852 31.2285H8.75781C9.71245 31.2285 10.4863 30.4546 10.4863 29.5C10.4863 28.5454 9.71245 27.7715 8.75781 27.7715Z" fill="#FFBB33"/>
<path d="M57.2715 27.7715H50.2422C49.2876 27.7715 48.5137 28.5454 48.5137 29.5C48.5137 30.4546 49.2876 31.2285 50.2422 31.2285H57.2715C58.2261 31.2285 59 30.4546 59 29.5C59 28.5454 58.2261 27.7715 57.2715 27.7715Z" fill="#FFBB33"/>
<path d="M8.71528 47.8304L13.6043 42.9414C14.2788 42.2669 15.3728 42.2669 16.0488 42.9414C16.7233 43.6159 16.7233 44.7099 16.0488 45.3859L11.1598 50.2749C10.4853 50.9494 9.39132 50.9494 8.71682 50.2749C8.04231 49.6004 8.04231 48.5065 8.71682 47.8304H8.71528Z" fill="#FFBB33"/>
<path d="M42.9381 13.6156L47.8271 8.72658C48.5016 8.05208 49.5956 8.05208 50.2701 8.72658C50.9446 9.40109 50.9446 10.495 50.2701 11.1711L45.381 16.0601C44.7065 16.7346 43.6126 16.7346 42.9365 16.0601C42.262 15.3856 42.262 14.2916 42.9365 13.6156H42.9381Z" fill="#FFBB33"/>
<path d="M42.9365 42.959C43.611 42.2845 44.705 42.2845 45.381 42.959L50.2701 47.848C50.9446 48.5225 50.9446 49.6165 50.2701 50.2925C49.5956 50.967 48.5016 50.967 47.8256 50.2925L42.9365 45.402C42.262 44.7275 42.262 43.6335 42.9365 42.959Z" fill="#FFBB33"/>
<path d="M8.72072 8.72658C9.39523 8.05208 10.4892 8.05208 11.1652 8.72658L16.0542 13.6156C16.7287 14.2901 16.7287 15.3841 16.0542 16.0601C15.3797 16.7346 14.2858 16.7346 13.6097 16.0601L8.72072 11.1711C8.04622 10.4966 8.04622 9.40262 8.72072 8.72658Z" fill="#FFBB33"/>
<path d="M29.5 48.5137C28.5459 48.5137 27.7715 49.288 27.7715 50.2422V57.2715C27.7715 58.2256 28.5459 59 29.5 59C30.4541 59 31.2285 58.2256 31.2285 57.2715V50.2422C31.2285 49.288 30.4541 48.5137 29.5 48.5137Z" fill="#FFBB33"/>
<path d="M29.5 45.0566C38.0917 45.0566 45.0566 38.0917 45.0566 29.5C45.0566 20.9083 38.0917 13.9434 29.5 13.9434C20.9083 13.9434 13.9434 20.9083 13.9434 29.5C13.9434 38.0917 20.9083 45.0566 29.5 45.0566Z" fill="#FFBB33"/>
<path d="M29.5 0C28.5459 0 27.7715 0.774375 27.7715 1.72852V8.75781C27.7715 9.71195 28.5459 10.4863 29.5 10.4863C30.4541 10.4863 31.2285 9.71195 31.2285 8.75781V1.72852C31.2285 0.774375 30.4541 0 29.5 0Z" fill="#FFBB33"/>
</g>
<defs>
<clipPath id="clip0_947_745">
<rect width="59" height="59" fill="white"/>
</clipPath>
</defs>
</svg>
