<svg width="72" height="36" viewBox="0 0 72 36" fill="none" xmlns="http://www.w3.org/2000/svg">
<g clip-path="url(#clip0_1224_5442)">
<path fill-rule="evenodd" clip-rule="evenodd" d="M19 9.77692C19 4.37786 14.7464 0 9.50054 0C4.25362 0 0 4.37786 0 9.77692C0 15.176 4.25255 19.5538 9.49946 19.5538C10.7732 19.5538 11.9881 19.295 13.098 18.8268L16.3369 19.9614C16.8818 20.152 17.3784 19.5715 17.1258 19.0405L16.0768 16.8317C17.8783 15.0526 19 12.5497 19 9.77692Z" fill="#F09937"/>
<path d="M8.50195 11.9648C8.51562 10.2217 9.00781 9.68848 9.86914 9.16211C10.4502 8.78613 10.9014 8.32812 10.8945 7.64453C10.9014 6.87891 10.2998 6.38672 9.55469 6.38672C8.87793 6.38672 8.22168 6.82422 8.17383 7.74023H6.46484C6.5127 5.90137 7.87988 4.96484 9.56836 4.96484C11.4141 4.96484 12.6787 5.99023 12.6855 7.61719C12.6787 8.73145 12.125 9.45605 11.2363 9.98242C10.4434 10.4678 10.1152 10.9395 10.1016 11.9648V12.0879H8.50195V11.9648ZM8.2832 14.043C8.27637 13.4688 8.76172 12.9971 9.34961 12.9902C9.91699 12.9971 10.4023 13.4688 10.4023 14.043C10.4023 14.6309 9.91699 15.1094 9.34961 15.1094C8.76172 15.1094 8.27637 14.6309 8.2832 14.043Z" fill="#ECF0F1"/>
</g>
<path d="M69.5937 8H27.4063C26.0773 8 25 9.08766 25 10.4294V33.5706C25 34.9123 26.0773 36 27.4063 36H69.5937C70.9227 36 72 34.9123 72 33.5706V10.4294C72 9.08766 70.9227 8 69.5937 8Z" fill="#F09937"/>
<path d="M48.2451 6.50067C42.2602 3.93804 35.6737 3.33233 29.5808 4.74566C28.4394 5.00969 27.6064 6.01921 27.6064 7.19957V29.8594C27.6064 31.4591 29.0564 32.6084 30.6143 32.2978C36.4141 31.1795 42.5996 31.8474 48.2451 34.2702" fill="#ECF0F1"/>
<path d="M48.2297 6.50067C54.1992 3.93804 60.7856 3.33233 66.8785 4.74566C68.02 5.00969 68.8529 6.01921 68.8529 7.19957V29.8594C68.8529 31.4591 67.403 32.6084 65.845 32.2978C60.0452 31.1795 53.8598 31.8474 48.2143 34.2702" fill="#ECF0F1"/>
<g clip-path="url(#clip1_1224_5442)">
<path d="M39.0266 17.2515C40.4644 17.2515 41.6299 16.0759 41.6299 14.6257C41.6299 13.1756 40.4644 12 39.0266 12C37.5888 12 36.4232 13.1756 36.4232 14.6257C36.4232 16.0759 37.5888 17.2515 39.0266 17.2515Z" fill="#F09937"/>
<path d="M37.8243 18.1341C39.5081 19.8323 39.1329 22.9639 39.1329 22.9639C39.1329 22.9639 36.028 23.3423 34.3442 21.6441C32.6605 19.9459 33.0357 16.8143 33.0357 16.8143C33.0357 16.8143 36.1406 16.4359 37.8243 18.1341Z" fill="#F09937"/>
<path d="M40.1754 18.1341C38.4917 19.8323 38.8669 22.9639 38.8669 22.9639C38.8669 22.9639 41.9718 23.3423 43.6555 21.6441C45.3392 19.9459 44.964 16.8143 44.964 16.8143C44.964 16.8143 41.8591 16.4359 40.1754 18.1341Z" fill="#F09937"/>
</g>
<path d="M53 18.5694V23.3154C53 23.789 53.5384 24.1047 54.0645 23.9679C56.9644 23.1997 60.1335 23.0629 63.0334 23.5469C63.535 23.6311 64 23.3154 64 22.8734V18.0222C64 17.696 63.743 17.4118 63.376 17.3382C60.1824 16.7278 56.7197 16.9593 53.5384 17.9064C53.2202 18.0011 53 18.2747 53 18.5694Z" fill="#F09937"/>
<g clip-path="url(#clip2_1224_5442)">
<path d="M53 13.6859V15.2243C53 15.8151 53.4038 16.0982 53.8076 15.9628C56.8788 14.9413 60.1947 14.7074 63.2659 15.3597C63.6452 15.4459 64 15.1628 64 14.7813V13.2059C64 12.7382 63.8042 12.4797 63.5228 12.4182C60.2558 11.6674 56.6707 11.9382 53.4038 13.1074C53.1591 13.1936 53 13.4274 53 13.6859Z" fill="#F09937"/>
</g>
<defs>
<clipPath id="clip0_1224_5442">
<rect width="19" height="20" fill="white" transform="matrix(-1 0 0 1 19 0)"/>
</clipPath>
<clipPath id="clip1_1224_5442">
<rect width="12" height="11" fill="white" transform="translate(33 12)"/>
</clipPath>
<clipPath id="clip2_1224_5442">
<rect width="11" height="4" fill="white" transform="translate(53 12)"/>
</clipPath>
</defs>
</svg>
