<svg width="58" height="31" viewBox="0 0 58 31" fill="none" xmlns="http://www.w3.org/2000/svg">
<g clip-path="url(#clip0_1075_1284)">
<path d="M53.9235 11.9139H52.384C51.9381 5.2706 46.3135 0 39.4625 0C32.6115 0 26.988 5.2706 26.5421 11.9139H25.0026C22.9331 11.9139 21.25 13.5729 21.25 15.6128V19.4383C21.25 21.4772 22.9331 23.1372 25.0026 23.1372H26.7515C27.5267 23.1372 28.1571 22.5158 28.1571 21.7517V12.7652C28.1571 6.6199 33.229 1.62172 39.4625 1.62172C45.696 1.62172 50.7679 6.62097 50.7679 12.7652V21.3154C50.7679 26.5786 46.0479 27.748 43.3468 27.9864C43.0089 27.2319 42.2435 26.7052 41.3528 26.7052H37.4879C36.2842 26.7052 35.3094 27.6672 35.3094 28.8526C35.3094 30.0391 36.2853 31 37.4879 31H41.3528C42.2845 31 43.0791 30.4232 43.3911 29.6134C45.7424 29.4379 47.7645 28.7781 49.2931 27.6767C50.8521 26.5541 51.8485 25.0047 52.2328 23.1361H53.9224C55.9909 23.1361 57.675 21.4772 57.675 19.4373V15.6117C57.675 13.5729 55.9919 11.9128 53.9224 11.9128L53.9235 11.9139Z" fill="#F09937"/>
</g>
<g clip-path="url(#clip1_1075_1284)">
<path d="M7.6887 2.32422C11.7542 2.32422 15.0508 5.71706 15.0508 9.90133C15.0508 12.0502 14.1814 13.99 12.7853 15.3688L13.5983 17.0806C13.794 17.4921 13.4091 17.942 12.9869 17.7943L10.4767 16.915C9.61653 17.2778 8.67501 17.4784 7.68787 17.4784C3.62151 17.4784 0.325781 14.0856 0.325781 9.90133C0.325781 5.71706 3.62234 2.32422 7.6887 2.32422ZM11.1586 10.8507C11.668 10.8507 12.0802 10.4264 12.0802 9.90219C12.0802 9.37798 11.668 8.95366 11.1586 8.95366C10.6493 8.95366 10.237 9.37798 10.237 9.90219C10.237 10.4264 10.6493 10.8507 11.1586 10.8507ZM7.6887 10.8507C8.19803 10.8507 8.6103 10.4264 8.6103 9.90219C8.6103 9.37798 8.19803 8.95366 7.6887 8.95366C7.17936 8.95366 6.76709 9.37798 6.76709 9.90219C6.76709 10.4264 7.17936 10.8507 7.6887 10.8507ZM4.21877 10.8507C4.7281 10.8507 5.14038 10.4264 5.14038 9.90219C5.14038 9.37798 4.7281 8.95366 4.21877 8.95366C3.70944 8.95366 3.29716 9.37798 3.29716 9.90219C3.29716 10.4264 3.70944 10.8507 4.21877 10.8507Z" fill="#F09937"/>
</g>
<defs>
<clipPath id="clip0_1075_1284">
<rect width="36.425" height="31" fill="white" transform="translate(21.25)"/>
</clipPath>
<clipPath id="clip1_1075_1284">
<rect width="14.725" height="15.5" fill="white" transform="matrix(-1 0 0 1 15.0508 2.32422)"/>
</clipPath>
</defs>
</svg>
