<svg width="73" height="40" viewBox="0 0 73 40" fill="none" xmlns="http://www.w3.org/2000/svg">
<g clip-path="url(#clip0_1224_4255)">
<path d="M68.1593 15.3728H66.1729C65.5976 6.80077 58.34 0 49.5 0C40.66 0 33.4038 6.80077 32.8285 15.3728H30.8421C28.1717 15.3728 26 17.5134 26 20.1455V25.0817C26 27.7125 28.1717 29.8545 30.8421 29.8545H33.0988C34.0989 29.8545 34.9124 29.0526 34.9124 28.0667V16.4712C34.9124 8.54181 41.4568 2.09254 49.5 2.09254C57.5432 2.09254 64.0876 8.54318 64.0876 16.4712V27.5038C64.0876 34.2949 57.9973 35.8039 54.512 36.1115C54.076 35.138 53.0884 34.4583 51.9392 34.4583H46.9522C45.399 34.4583 44.1411 35.6996 44.1411 37.2292C44.1411 38.7601 45.4004 40 46.9522 40H51.9392C53.1413 40 54.1666 39.2558 54.5691 38.2109C57.6031 37.9843 60.2122 37.133 62.1847 35.7119C64.1962 34.2634 65.4819 32.2642 65.9779 29.8531H68.1579C70.8269 29.8531 73 27.7125 73 25.0803V20.1442C73 17.5134 70.8283 15.3714 68.1579 15.3714L68.1593 15.3728Z" fill="#F09937"/>
<rect x="44" y="34" width="11" height="6" rx="3" fill="#ECF0F1"/>
</g>
<ellipse cx="9.5" cy="13" rx="8.5" ry="4" fill="#ECF0F1"/>
<path d="M9.50054 3C14.7464 3 19 7.37786 19 12.7769C19 15.5497 17.8783 18.0526 16.0768 19.8317L17.1258 22.0405C17.3784 22.5715 16.8818 23.152 16.3369 22.9614L13.098 21.8268C11.9881 22.295 10.7732 22.5538 9.49946 22.5538C4.25255 22.5538 0 18.176 0 12.7769C0 7.37786 4.25362 3 9.50054 3ZM13.9779 14.0019C14.6351 14.0019 15.167 13.4544 15.167 12.778C15.167 12.1016 14.6351 11.5541 13.9779 11.5541C13.3207 11.5541 12.7887 12.1016 12.7887 12.778C12.7887 13.4544 13.3207 14.0019 13.9779 14.0019ZM9.50054 14.0019C10.1577 14.0019 10.6897 13.4544 10.6897 12.778C10.6897 12.1016 10.1577 11.5541 9.50054 11.5541C8.84333 11.5541 8.31136 12.1016 8.31136 12.778C8.31136 13.4544 8.84333 14.0019 9.50054 14.0019ZM5.02321 14.0019C5.68041 14.0019 6.21238 13.4544 6.21238 12.778C6.21238 12.1016 5.68041 11.5541 5.02321 11.5541C4.36601 11.5541 3.83404 12.1016 3.83404 12.778C3.83404 13.4544 4.36601 14.0019 5.02321 14.0019Z" fill="#F09937"/>
<defs>
<clipPath id="clip0_1224_4255">
<rect x="26" width="47" height="40" rx="9" fill="white"/>
</clipPath>
</defs>
</svg>
