<svg width="24" height="24" viewBox="0 0 24 24" fill="none" xmlns="http://www.w3.org/2000/svg">
<path d="M10.4698 7.86983L8.60986 9.73982C9.37037 10.8431 10.2306 11.8741 11.1798 12.8198C12.129 13.7692 13.1634 14.6295 14.2698 15.3898L16.1298 13.5298C16.3172 13.3436 16.5706 13.239 16.8348 13.239C17.099 13.239 17.3525 13.3436 17.5398 13.5298L21.0798 17.0698C21.2661 17.2572 21.3706 17.5106 21.3706 17.7748C21.3706 18.039 21.2661 18.2925 21.0798 18.4798L20.3198 19.2398L18.7698 20.7898C18.4934 21.0648 18.1425 21.2529 17.7606 21.3311C17.3786 21.4092 16.9821 21.374 16.6198 21.2298C15.7664 20.8657 14.932 20.4585 14.1198 20.0098C12.0045 18.8298 10.0627 17.3625 8.34986 15.6498C6.63561 13.9383 5.16817 11.9963 3.98986 9.87982C3.53926 9.06865 3.13202 8.23415 2.76987 7.37982C2.6269 7.01663 2.59332 6.61955 2.67328 6.23752C2.75325 5.85548 2.94324 5.50519 3.21986 5.22983L4.75986 3.68982L5.51987 2.91982C5.61283 2.82609 5.72342 2.7517 5.84528 2.70093C5.96714 2.65016 6.09785 2.62402 6.22986 2.62402C6.36188 2.62402 6.49258 2.65016 6.61444 2.70093C6.7363 2.7517 6.8469 2.82609 6.93986 2.91982L10.4698 6.45982C10.6561 6.64719 10.7606 6.90064 10.7606 7.16483C10.7606 7.42901 10.6561 7.68246 10.4698 7.86983Z" fill="#5A8534"/>
</svg>
