<svg width="24" height="24" viewBox="0 0 24 24" fill="none" xmlns="http://www.w3.org/2000/svg">
<path d="M2.5 6.5V17.5C2.49936 18.0136 2.69631 18.5076 3.05002 18.8799C3.40373 19.2523 3.88711 19.4743 4.40003 19.5H19.6C20.1129 19.4743 20.5963 19.2523 20.95 18.8799C21.3037 18.5076 21.5006 18.0136 21.5 17.5V6.5H2.5Z" fill="#80AC49"/>
<path d="M12 14L21.5 7V6.5C21.5006 5.98645 21.3037 5.49232 20.95 5.12C20.5963 4.74767 20.1129 4.52568 19.6 4.5H4.40003C3.88711 4.52568 3.40373 4.74767 3.05002 5.12C2.69631 5.49232 2.49936 5.98645 2.5 6.5V7L12 14Z" fill="#5A8534"/>
</svg>
