<svg width="66" height="66" viewBox="0 0 66 66" fill="none" xmlns="http://www.w3.org/2000/svg">
<circle cx="33" cy="33" r="33" fill="#FFEAAE"/>
<circle cx="32.9992" cy="32.9992" r="27.9231" fill="#FFD764"/>
<ellipse cx="22.8431" cy="31.7315" rx="2.53846" ry="3.80769" fill="#414C38"/>
<ellipse cx="43.1498" cy="31.7315" rx="2.53846" ry="3.80769" fill="#414C38"/>
<path d="M27.916 40.6176C30.0314 37.9382 34.2622 36.5929 38.0699 40.6176" stroke="#414C38" stroke-width="2.03077" stroke-linecap="round"/>
<g clip-path="url(#clip0_1454_6951)">
<path d="M53.0006 4C46.2792 11.2328 47.0246 15.3801 47.0246 15.3801C47.0246 18.4856 49.6998 21.0025 53.0006 21.0025C56.3014 21.0025 58.9766 18.4856 58.9766 15.3801C58.9766 15.3801 59.722 11.2328 53.0006 4Z" fill="#7CC4E8"/>
<path d="M48.5566 19.1393C49.6507 20.2813 51.2345 21.0025 52.9994 21.0025C56.3002 21.0025 58.9755 18.4856 58.9755 15.3801C58.9755 15.3801 59.2869 13.637 57.6764 10.4414C56.4865 17.7293 51.6232 19.0566 48.5566 19.1393Z" fill="#62BBE8"/>
</g>
<defs>
<clipPath id="clip0_1454_6951">
<rect width="12" height="17" fill="white" transform="translate(47 4)"/>
</clipPath>
</defs>
</svg>
