<svg xmlns="http://www.w3.org/2000/svg" width="24" height="25" viewBox="0 0 24 25" fill="none">
<g clip-path="url(#clip0_256_6247)">
<path d="M21.9999 5.4473C21.1066 3.58062 18.5332 2.05333 15.5399 2.94255C14.1096 3.36323 12.8616 4.26538 11.9999 5.50161C11.1382 4.26538 9.89027 3.36323 8.45991 2.94255C5.45991 2.06691 2.89324 3.58062 1.99991 5.4473C0.746578 8.06066 1.26658 10.9998 3.54658 14.1834C5.33325 16.6746 7.88658 19.1997 11.5932 22.1321C11.7104 22.2251 11.8547 22.2756 12.0032 22.2756C12.1518 22.2756 12.2961 22.2251 12.4132 22.1321C16.1132 19.2065 18.6732 16.7017 20.4599 14.1834C22.7332 10.9998 23.2532 8.06066 21.9999 5.4473Z" fill="current"/>
</g>
<defs>
<clipPath id="clip0_256_6247">
<rect width="24" height="24.4366" fill="white" transform="translate(0 0.26123)"/>
</clipPath>
</defs>
</svg>