<svg width="18" height="18" viewBox="0 0 18 18" fill="none" xmlns="http://www.w3.org/2000/svg">
<path d="M9 10.125C9.49728 10.125 9.97419 9.92746 10.3258 9.57583C10.6775 9.22419 10.875 8.74728 10.875 8.25C10.875 7.75272 10.6775 7.27581 10.3258 6.92417C9.97419 6.57254 9.49728 6.375 9 6.375C8.50272 6.375 8.02581 6.57254 7.67417 6.92417C7.32254 7.27581 7.125 7.75272 7.125 8.25C7.125 8.74728 7.32254 9.22419 7.67417 9.57583C8.02581 9.92746 8.50272 10.125 9 10.125Z" fill="#282828"/>
<path d="M14.3033 2.57175H14.304C17.2328 5.5005 17.2328 10.2495 14.304 13.1782L10.2518 17.2305C9.9199 17.5621 9.46994 17.7483 9.00079 17.7483C8.53164 17.7483 8.08168 17.5621 7.74979 17.2305L3.71854 13.1992L3.69754 13.1782C0.768789 10.2495 0.768789 5.5005 3.69754 2.57175C6.62554 -0.357004 11.3745 -0.357004 14.3033 2.57175ZM4.49254 3.36675C3.29718 4.56227 2.62565 6.18439 2.62565 7.875C2.62565 9.5656 3.29718 11.187 4.49254 12.3825L4.50979 12.4005L4.51129 12.402L8.54479 16.4355C8.66558 16.5561 8.82932 16.6239 9.00004 16.6239C9.17076 16.6239 9.33449 16.5561 9.45529 16.4355L13.5075 12.3825C14.6888 11.1841 15.3483 9.5672 15.3423 7.88448C15.3362 6.20175 14.6651 4.58967 13.4753 3.39975C12.2855 2.20982 10.6734 1.53859 8.99071 1.5324C7.30799 1.52622 5.69107 2.1856 4.49254 3.36675Z" fill="#282828"/>
</svg>
