<svg xmlns="http://www.w3.org/2000/svg" width="27" height="26" viewBox="0 0 27 26" fill="none">
  <g clip-path="url(#clip0_265_8653)">
    <path d="M23.9798 20.0995C23.2833 19.4786 22.6736 18.7669 22.167 17.9834C21.614 16.9019 21.2825 15.7208 21.192 14.5095V10.9417C21.1968 9.03909 20.5066 7.20021 19.2512 5.77057C17.9958 4.34093 16.2615 3.41894 14.3742 3.17782V2.24615C14.3742 1.99044 14.2727 1.7452 14.0918 1.56438C13.911 1.38356 13.6658 1.28198 13.4101 1.28198C13.1544 1.28198 12.9091 1.38356 12.7283 1.56438C12.5475 1.7452 12.4459 1.99044 12.4459 2.24615V3.19226C10.5755 3.45076 8.86222 4.37833 7.62328 5.80317C6.38435 7.22801 5.70376 9.05356 5.70757 10.9417V14.5095C5.61711 15.7208 5.28563 16.9019 4.73257 17.9834C4.23487 18.7651 3.63493 19.4767 2.94868 20.0995C2.87164 20.1672 2.8099 20.2505 2.76756 20.3439C2.72522 20.4373 2.70325 20.5386 2.70312 20.6411V21.6234C2.70312 21.8149 2.77922 21.9986 2.91466 22.1341C3.0501 22.2695 3.2338 22.3456 3.42535 22.3456H23.5031C23.6947 22.3456 23.8784 22.2695 24.0138 22.1341C24.1493 21.9986 24.2253 21.8149 24.2253 21.6234V20.6411C24.2252 20.5386 24.2033 20.4373 24.1609 20.3439C24.1186 20.2505 24.0568 20.1672 23.9798 20.0995ZM4.20535 20.9011C4.87731 20.252 5.46895 19.5246 5.96757 18.7345C6.66423 17.4283 7.07071 15.9872 7.15924 14.5095V10.9417C7.13059 10.0953 7.27257 9.25176 7.57671 8.46135C7.88086 7.67095 8.34094 6.94983 8.92958 6.34093C9.51822 5.73204 10.2234 5.24783 11.003 4.91712C11.7827 4.58642 12.6209 4.416 13.4678 4.416C14.3148 4.416 15.153 4.58642 15.9327 4.91712C16.7123 5.24783 17.4175 5.73204 18.0061 6.34093C18.5948 6.94983 19.0548 7.67095 19.359 8.46135C19.6631 9.25176 19.8051 10.0953 19.7765 10.9417V14.5095C19.865 15.9872 20.2715 17.4283 20.9681 18.7345C21.4668 19.5246 22.0584 20.252 22.7304 20.9011H4.20535Z" fill="#222A1A"/>
    <path d="M13.5 24.7577C13.955 24.7473 14.3916 24.5762 14.7326 24.2749C15.0736 23.9735 15.297 23.5613 15.3633 23.1111H11.5645C11.6327 23.5735 11.8666 23.9955 12.2226 24.2984C12.5787 24.6013 13.0326 24.7645 13.5 24.7577Z" fill="#222A1A"/>
  </g>
  <defs>
    <clipPath id="clip0_265_8653">
      <rect width="26" height="26" fill="white" transform="translate(0.5)"/>
    </clipPath>
  </defs>
</svg>