<svg xmlns="http://www.w3.org/2000/svg" width="130" height="127" viewBox="0 0 130 127" fill="none">
<g clip-path="url(#clip0_425_426)">
<path d="M113.766 13.6182H27.5236C18.7199 13.6182 11.583 20.8208 11.583 29.7057V110.912C11.583 119.797 18.7199 127 27.5236 127H113.766C122.569 127 129.706 119.797 129.706 110.912V29.7057C129.706 20.8208 122.569 13.6182 113.766 13.6182Z" fill="#BEC7B3"/>
<path d="M130.001 26.2712C130.001 16.9429 122.476 9.3833 113.197 9.3833H27.7296C18.4476 9.3833 10.9258 16.9456 10.9258 26.2712V37.0557H130.003V26.2712H130.001Z" fill="#FFD863"/>
<path d="M10.9227 37.0557V46.1057C10.9227 46.1057 11.6377 80.5637 0.813937 97.6588C0.813937 97.6588 -4.59406 110.228 12.4697 110.936H94.7987C108.03 110.936 116.134 105.208 121.441 91.7864C128.664 73.5157 130 50.5901 130 50.5901V37.0557H10.9227Z" fill="#EBF6DF"/>
<path d="M41.2154 0H41.1868C37.3514 0 34.2422 3.13786 34.2422 7.00862V15.4158C34.2422 19.2866 37.3514 22.4244 41.1868 22.4244H41.2154C45.0508 22.4244 48.16 19.2866 48.16 15.4158V7.00862C48.16 3.13786 45.0508 0 41.2154 0Z" fill="#EFAA4C"/>
<path d="M95.4146 0H95.386C91.5506 0 88.4414 3.13786 88.4414 7.00862V15.4158C88.4414 19.2866 91.5506 22.4244 95.386 22.4244H95.4146C99.25 22.4244 102.359 19.2866 102.359 15.4158V7.00862C102.359 3.13786 99.25 0 95.4146 0Z" fill="#EFAA4C"/>
<path d="M65.1583 52.9335C69.2793 52.9623 72.5267 54.2035 73.1195 58.3703C73.7253 62.5162 69.8929 65.1375 64.9581 65.0903C62.3945 65.0903 59.1471 64.206 57.9069 62.6238C57.1607 61.6844 57.4883 60.4957 58.5413 59.9342C59.4123 59.4645 60.5459 59.5695 61.3987 59.8056C61.9369 59.9552 62.3529 60.3173 62.6649 60.4905C63.3201 60.8369 63.9649 60.9497 64.8411 60.9602C66.1983 60.9786 67.6335 60.0444 67.5815 58.819C67.5295 57.5936 66.2711 56.7881 64.5577 56.7618C63.9103 56.7513 63.2629 56.7303 62.6181 56.6989C59.3785 56.5126 58.5127 55.484 59.0041 52.9807C59.2147 51.8498 59.4201 50.7162 59.6229 49.5827C60.0857 47.04 60.6421 46.3211 63.2993 46.468C65.2805 46.5599 67.2643 46.5284 69.2429 46.3735C70.5195 46.2712 71.1383 47.2578 71.2449 48.1631C71.3515 49.0605 70.9589 50.1258 69.5393 50.2413C67.9403 50.3672 66.3361 50.4171 64.7345 50.3935C64.2951 50.3856 64.1469 50.4276 64.1131 50.8579C64.0663 51.3853 64.0195 51.9154 63.9701 52.4428C63.9311 52.8731 64.1105 52.9256 64.5707 52.9335C64.7657 52.9361 64.9633 52.9387 65.1583 52.9413V52.9335Z" fill="#BEC7B3"/>
</g>
<defs>
<clipPath id="clip0_425_426">
<rect width="130" height="127" fill="white"/>
</clipPath>
</defs>
</svg>