<svg xmlns="http://www.w3.org/2000/svg" width="390" height="298" viewBox="0 0 390 298" fill="none">
<g filter="url(#filter0_d_1712_7011)">
<mask id="mask0_1712_7011" style="mask-type:alpha" maskUnits="userSpaceOnUse" x="0" y="0" width="390" height="290">
<rect width="390" height="289.39" fill="#F0FBE4"/>
</mask>
<g mask="url(#mask0_1712_7011)">
<path d="M202.711 241.561C213.201 266.701 195.721 297.911 195.721 297.911C195.721 297.911 161.241 288.371 150.751 263.241C140.261 238.101 157.741 206.891 157.741 206.891C157.741 206.891 192.221 216.431 202.711 241.561Z" fill="#DCEAC8"/>
<path d="M193.331 241.561C182.841 266.701 200.321 297.911 200.321 297.911C200.321 297.911 234.801 288.371 245.291 263.241C255.781 238.101 238.301 206.891 238.301 206.891C238.301 206.891 203.821 216.431 193.331 241.561Z" fill="#DCEAC8"/>
<path d="M169.771 250.59C169.771 277.44 197.521 299.2 197.521 299.2C197.521 299.2 225.271 277.44 225.271 250.59C225.271 223.74 197.521 201.98 197.521 201.98C197.521 201.98 169.771 223.74 169.771 250.59Z" fill="#C6DDA5"/>
<path d="M185.191 261.501C204.451 280.761 200.161 316.271 200.161 316.271C200.161 316.271 164.641 320.561 145.391 301.301C126.131 282.041 130.421 246.531 130.421 246.531C130.421 246.531 165.941 242.241 185.191 261.501Z" fill="#DCEAC8"/>
<path d="M210.101 262.111C191.651 281.611 196.841 316.491 196.841 316.491C196.841 316.491 231.951 319.751 250.411 300.251C268.861 280.751 263.671 245.871 263.671 245.871C263.671 245.871 228.561 242.611 210.101 262.111Z" fill="#DCEAC8"/>
<path d="M178.74 139.02C178.81 148.33 172.02 155.111 162.72 155.041C153.41 155.111 146.63 148.32 146.7 139.02C146.64 129.71 153.42 122.931 162.72 123.001C172.03 122.931 178.81 129.71 178.74 139.02Z" fill="#DCEAC8"/>
<path d="M162.08 156.141C162.15 165.451 155.36 172.231 146.06 172.161C136.75 172.231 129.97 165.441 130.04 156.141C129.97 146.831 136.76 140.051 146.06 140.121C155.37 140.051 162.15 146.841 162.08 156.141Z" fill="#DCEAC8"/>
<path d="M178.291 172.04C178.351 181.35 171.571 188.13 162.271 188.06C152.971 188.13 146.181 181.34 146.251 172.04C146.181 162.73 152.961 155.95 162.271 156.02C171.581 155.95 178.361 162.74 178.291 172.04Z" fill="#DCEAC8"/>
<path d="M195.101 155.53C195.171 164.84 188.381 171.62 179.081 171.55C169.771 171.62 162.991 164.83 163.061 155.53C162.991 146.22 169.781 139.44 179.081 139.51C188.391 139.44 195.171 146.22 195.101 155.53Z" fill="#DCEAC8"/>
<path d="M329.451 224.171C329.521 233.481 322.741 240.261 313.431 240.191C304.121 240.261 297.341 233.471 297.411 224.171C297.341 214.861 304.121 208.081 313.431 208.151C322.741 208.081 329.521 214.871 329.451 224.171Z" fill="#DCEAC8"/>
<path d="M312.791 241.29C312.861 250.6 306.07 257.38 296.77 257.31C287.46 257.38 280.681 250.59 280.751 241.29C280.681 231.98 287.47 225.2 296.77 225.27C306.08 225.2 312.861 231.99 312.791 241.29Z" fill="#DCEAC8"/>
<path d="M328.99 257.19C329.06 266.5 322.28 273.28 312.97 273.21C303.66 273.28 296.88 266.49 296.95 257.19C296.88 247.88 303.66 241.1 312.97 241.17C322.28 241.1 329.06 247.89 328.99 257.19Z" fill="#DCEAC8"/>
<path d="M345.81 240.681C345.88 249.991 339.09 256.771 329.79 256.701C320.48 256.771 313.7 249.981 313.77 240.681C313.7 231.371 320.48 224.591 329.79 224.661C339.1 224.591 345.88 231.381 345.81 240.681Z" fill="#DCEAC8"/>
<path d="M92.7007 239.801C92.7707 249.111 85.9907 255.891 76.6807 255.821C67.3707 255.891 60.5907 249.101 60.6607 239.801C60.5907 230.491 67.3707 223.711 76.6807 223.781C85.9807 223.711 92.7707 230.501 92.7007 239.801Z" fill="#DCEAC8"/>
<path d="M76.0405 256.921C76.1005 266.231 69.3306 273.011 60.0206 272.941C50.7106 273.011 43.9305 266.221 44.0005 256.921C43.9305 247.611 50.7206 240.831 60.0206 240.901C69.3306 240.831 76.1105 247.621 76.0405 256.921Z" fill="#DCEAC8"/>
<path d="M92.2515 272.821C92.3215 282.131 85.5415 288.911 76.2315 288.841C66.9215 288.911 60.1415 282.121 60.2115 272.821C60.1415 263.511 66.9315 256.731 76.2315 256.801C85.5415 256.731 92.3215 263.521 92.2515 272.821Z" fill="#DCEAC8"/>
<path d="M109.06 256.311C109.13 265.621 102.35 272.401 93.0401 272.331C83.7301 272.401 76.9501 265.611 77.0201 256.311C76.9601 247.001 83.7401 240.221 93.0401 240.291C102.35 240.221 109.13 247.011 109.06 256.311Z" fill="#DCEAC8"/>
<path d="M170.729 154.731C170.759 159.211 167.499 162.481 163.019 162.441C158.539 162.471 155.269 159.211 155.309 154.731C155.279 150.251 158.539 146.981 163.019 147.021C167.499 146.991 170.759 150.251 170.729 154.731Z" fill="#B9D199"/>
<path d="M321.44 239.881C321.47 244.361 318.21 247.631 313.73 247.591C309.25 247.621 305.98 244.361 306.02 239.881C305.99 235.401 309.25 232.131 313.73 232.171C318.21 232.141 321.48 235.401 321.44 239.881Z" fill="#B9D199"/>
<path d="M84.6899 255.521C84.7199 260.001 81.4599 263.271 76.9799 263.231C72.4999 263.261 69.2299 260.001 69.2699 255.521C69.2399 251.041 72.4999 247.771 76.9799 247.811C81.4599 247.781 84.7199 251.041 84.6899 255.521Z" fill="#B9D199"/>
<path d="M252.091 161.631C252.151 161.301 252.091 160.961 251.951 160.661C248.251 153.291 241.711 149.341 237.041 151.651C234.661 152.831 233.221 155.391 232.971 158.861C232.831 162.401 233.621 165.921 235.251 169.071C235.951 170.581 236.791 172.011 237.761 173.361C237.811 173.431 237.871 173.491 237.931 173.541L246.291 181.331C246.921 181.921 247.911 181.891 248.501 181.251C248.711 181.031 248.851 180.751 248.901 180.441L252.091 161.611V161.631Z" fill="#DCEAC8"/>
<path d="M259.351 175.101L239.891 171.081C233.931 169.851 228.161 173.341 227.021 178.851C225.881 184.371 229.801 189.851 235.761 191.081L255.221 195.101C261.171 196.331 266.951 192.841 268.081 187.321C269.221 181.801 265.301 176.321 259.351 175.091V175.101Z" fill="#DCEAC8"/>
<mask id="mask1_1712_7011" style="mask-type:luminance" maskUnits="userSpaceOnUse" x="228" y="170" width="39" height="26">
<path d="M258.721 174.971L240.521 171.211C235.011 170.021 229.571 173.521 228.371 179.031C227.181 184.541 230.681 189.981 236.191 191.181C236.251 191.191 236.321 191.211 236.381 191.221L254.581 194.981C260.091 196.171 265.531 192.671 266.731 187.161C267.921 181.651 264.421 176.211 258.911 175.011C258.851 175.001 258.781 174.981 258.721 174.971Z" fill="white"/>
</mask>
<g mask="url(#mask1_1712_7011)">
<path d="M257.031 171.871C257.081 171.141 256.611 170.481 255.901 170.311L245.281 167.951C244.841 167.841 244.381 167.951 244.041 168.261C243.691 168.561 243.481 169.001 243.481 169.461C243.451 173.981 243.121 178.491 242.491 182.961C241.831 186.221 240.841 189.411 239.531 192.471C239.341 192.911 239.351 193.411 239.571 193.841C239.771 194.231 240.131 194.511 240.551 194.601C240.581 194.601 240.601 194.601 240.631 194.611L250.751 196.101C251.431 196.191 252.081 195.801 252.331 195.171C253.601 192.081 254.581 188.881 255.251 185.601C255.801 182.951 256.901 174.491 257.041 171.871H257.031Z" fill="#B9D199"/>
</g>
<path d="M270.53 157.8C270.4 157.6 270.27 157.41 270.12 157.23C266.73 153.23 259.11 154.31 252.78 159.68C246.57 164.94 244.24 172.08 247.34 176.13C247.4 176.21 247.46 176.31 247.53 176.39C248.54 177.55 249.91 178.33 251.43 178.61C255.25 179.4 260.38 177.75 264.87 173.94C267.62 171.7 269.74 168.78 271.01 165.47C272.06 162.48 271.88 159.79 270.54 157.8H270.53Z" fill="#DCEAC8"/>
</g>
</g>
<defs>
<filter id="filter0_d_1712_7011" x="40" y="123" width="309.811" height="174.39" filterUnits="userSpaceOnUse" color-interpolation-filters="sRGB">
<feFlood flood-opacity="0" result="BackgroundImageFix"/>
<feColorMatrix in="SourceAlpha" type="matrix" values="0 0 0 0 0 0 0 0 0 0 0 0 0 0 0 0 0 0 127 0" result="hardAlpha"/>
<feOffset dy="4"/>
<feGaussianBlur stdDeviation="2"/>
<feComposite in2="hardAlpha" operator="out"/>
<feColorMatrix type="matrix" values="0 0 0 0 0 0 0 0 0 0 0 0 0 0 0 0 0 0 0.25 0"/>
<feBlend mode="normal" in2="BackgroundImageFix" result="effect1_dropShadow_1712_7011"/>
<feBlend mode="normal" in="SourceGraphic" in2="effect1_dropShadow_1712_7011" result="shape"/>
</filter>
</defs>
</svg>