<svg xmlns="http://www.w3.org/2000/svg" width="390" height="298" viewBox="0 0 390 298" fill="none">
<mask id="mask0_1727_7148" style="mask-type:alpha" maskUnits="userSpaceOnUse" x="0" y="0" width="390" height="290">
<rect width="390" height="289.39" fill="#F0FBE4"/>
</mask>
<g mask="url(#mask0_1727_7148)">
<path d="M117.59 215.515V205.739C117.59 167.932 148.522 137 186.329 137H198.687C236.494 137 267.426 167.932 267.426 205.739V215.515" stroke="#DCEAC8" stroke-width="6.4112" stroke-miterlimit="10"/>
<path d="M213.424 253.091L216.347 260.111H174.696L177.619 253.091C177.619 253.091 105.797 275.291 90.6977 339.221C89.5083 344.255 88.9789 348.925 89.0006 353.262C116.582 364.953 151.365 371.93 189.172 371.93C232.897 371.93 272.576 362.596 301.745 347.431C301.477 344.806 301.02 342.079 300.346 339.229C285.246 275.298 213.424 253.098 213.424 253.098V253.091Z" fill="#DCEAC8"/>
<path d="M136.736 186.883H121.252C105.369 186.883 97.8047 201.294 97.8047 216.937C97.8047 230.565 103.614 243.003 115.269 246.172C117.118 246.672 119.091 246.991 121.259 246.991H136.743C139.115 246.991 141.037 245.07 141.037 242.698V191.176C141.037 188.805 139.115 186.883 136.743 186.883H136.736Z" fill="#DCEAC8"/>
<path d="M253.88 186.883H268.69C283.891 186.883 291.129 201.975 291.129 218.366C291.129 232.639 285.574 245.672 274.419 248.986C272.65 249.515 270.764 249.842 268.69 249.842H266.202H253.88C251.61 249.842 249.775 247.833 249.775 245.345V191.379C249.775 188.892 251.61 186.883 253.88 186.883Z" fill="#DCEAC8"/>
<path d="M224.508 188.681C228.229 190.712 228.229 196.057 224.508 198.088C223.609 198.581 222.869 199.321 222.376 200.22C220.345 203.941 215 203.941 212.97 200.22C212.476 199.321 211.737 198.581 210.837 198.088C207.117 196.057 207.117 190.712 210.837 188.681C211.737 188.188 212.476 187.448 212.97 186.549C215 182.829 220.345 182.829 222.376 186.549C222.869 187.448 223.609 188.188 224.508 188.681Z" fill="white"/>
<path d="M192.849 175.656C192.849 175.656 192.849 175.656 192.856 175.648H192.842L192.849 175.656Z" fill="#F9F9F9"/>
<path d="M192.834 175.648C192.834 175.648 192.841 175.656 192.848 175.663L192.834 175.648Z" fill="#F9F9F9"/>
<path d="M192.848 175.656V175.663L192.854 175.656H192.848Z" fill="#F9F9F9"/>
<path d="M192.849 175.663C172.179 199.799 129.955 216.814 126.539 218.163C130.651 250.139 158.769 274.892 192.863 274.892C226.957 274.892 255.061 250.146 259.18 218.177C255.945 216.901 213.562 199.865 192.849 175.67V175.663Z" fill="#F9F9F9"/>
<path d="M178.402 225.299C178.402 229.027 176.03 232.051 173.1 232.051C170.17 232.051 167.799 229.027 167.799 225.299" stroke="#C6DDA5" stroke-width="2.66892" stroke-linecap="round" stroke-linejoin="round"/>
<path d="M216.248 225.299C216.248 229.027 213.876 232.051 210.946 232.051C208.016 232.051 205.645 229.027 205.645 225.299" stroke="#C6DDA5" stroke-width="2.66892" stroke-linecap="round" stroke-linejoin="round"/>
<path fill-rule="evenodd" clip-rule="evenodd" d="M192.848 175.649H192.834H192.826L192.841 175.663L126.531 218.112C126.198 215.472 126.002 212.789 126.002 210.062C126.002 174.249 155.933 145.225 192.863 145.225C229.792 145.225 259.723 174.256 259.723 210.062C259.723 212.796 259.528 215.48 259.187 218.127L192.863 175.663V175.649H192.848ZM126.539 218.112L192.848 175.663L192.856 175.671C172.186 199.814 129.962 216.821 126.546 218.17C126.539 218.148 126.539 218.112 126.539 218.112Z" fill="#DCEAC8"/>
<path d="M192.855 175.656C213.575 199.85 255.952 216.886 259.186 218.163C259.186 218.148 259.186 218.126 259.186 218.112L192.848 175.648L192.855 175.656Z" fill="#DCEAC8"/>
<path d="M191.885 247.477C195.053 247.477 197.622 244.145 197.622 240.036C197.622 235.926 195.053 232.595 191.885 232.595C188.717 232.595 186.148 235.926 186.148 240.036C186.148 244.145 188.717 247.477 191.885 247.477Z" fill="#C6DDA5"/>
<path d="M140.181 235.104C138.731 233.871 138.274 231.848 138.84 230.035C139.13 229.114 139.282 228.128 139.282 227.105C139.282 224.922 138.564 222.906 137.353 221.281C136.142 219.657 136.076 217.648 137.027 215.943C137.81 214.536 138.252 212.919 138.252 211.193C138.252 209.467 137.817 207.908 137.063 206.522C136.069 204.709 136.352 202.483 137.752 200.96C139.55 199.002 140.558 196.318 140.283 193.395C139.855 188.841 136.207 185.12 131.652 184.613C125.749 183.96 120.752 188.565 120.752 194.338C120.752 196.028 121.187 197.624 121.941 199.009C122.928 200.807 122.681 203.034 121.289 204.535C119.671 206.283 118.678 208.618 118.678 211.186C118.678 213.369 119.396 215.385 120.607 217.009C121.818 218.634 121.883 220.643 120.933 222.347C120.15 223.754 119.708 225.372 119.708 227.098C119.708 230.086 121.049 232.755 123.16 234.546C124.618 235.786 125.06 237.817 124.494 239.644C124.11 240.885 123.965 242.226 124.117 243.626C124.596 248.13 128.229 251.778 132.733 252.271C138.637 252.924 143.634 248.318 143.634 242.545C143.634 239.557 142.292 236.889 140.181 235.097V235.104Z" fill="white"/>
<path d="M250.624 235.104C252.075 233.871 252.531 231.848 251.966 230.035C251.676 229.114 251.523 228.128 251.523 227.105C251.523 224.922 252.241 222.906 253.453 221.281C254.62 219.715 254.729 217.648 253.779 215.943C252.996 214.536 252.553 212.919 252.553 211.193C252.553 209.467 252.988 207.908 253.743 206.522C254.736 204.709 254.453 202.483 253.054 200.96C251.255 199.002 250.247 196.318 250.523 193.395C250.95 188.841 254.598 185.12 259.153 184.613C265.057 183.96 270.054 188.565 270.054 194.338C270.054 196.028 269.618 197.624 268.864 199.009C267.878 200.807 268.124 203.034 269.517 204.535C271.134 206.283 272.128 208.618 272.128 211.186C272.128 213.369 271.41 215.385 270.199 217.009C269.031 218.576 268.922 220.643 269.872 222.347C270.655 223.754 271.098 225.372 271.098 227.098C271.098 230.086 269.756 232.755 267.646 234.546C266.188 235.786 265.746 237.817 266.311 239.644C266.696 240.885 266.841 242.226 266.688 243.626C266.21 248.13 262.576 251.778 258.072 252.271C252.169 252.924 247.172 248.318 247.172 242.545C247.172 239.557 248.514 236.889 250.624 235.097V235.104Z" fill="white"/>
</g>
</svg>