<svg xmlns="http://www.w3.org/2000/svg" width="390" height="290" viewBox="0 0 390 290" fill="none">
<mask id="mask0_1727_7131" style="mask-type:alpha" maskUnits="userSpaceOnUse" x="0" y="0" width="390" height="290">
<rect width="390" height="289.39" fill="#F0FBE4"/>
</mask>
<g mask="url(#mask0_1727_7131)">
<path d="M301.11 327.19H91.0805L69.4805 235.14H318.75L301.11 327.19Z" fill="#C6DDA5"/>
<path d="M303.52 250.68H85.6201C73.8301 250.68 65.8001 238.74 70.2401 227.82L86.7101 187.35C89.2601 181.09 95.3401 177 102.09 177H289.72C296.82 177 303.14 181.52 305.43 188.24L319.23 228.71C322.9 239.48 314.9 250.67 303.52 250.67V250.68Z" fill="#DCEAC8"/>
<path d="M120.92 190.87C129.65 199.6 127.7 215.69 127.7 215.69C127.7 215.69 111.6 217.63 102.88 208.91C94.15 200.18 96.1 184.09 96.1 184.09C96.1 184.09 112.2 182.15 120.92 190.87Z" fill="#C6DDA5"/>
<path d="M132.211 191.15C123.851 199.99 126.201 215.79 126.201 215.79C126.201 215.79 142.111 217.27 150.481 208.43C158.841 199.59 156.491 183.79 156.491 183.79C156.491 183.79 140.581 182.31 132.211 191.15Z" fill="#C6DDA5"/>
<path d="M190.68 190.87C199.41 199.6 197.46 215.69 197.46 215.69C197.46 215.69 181.36 217.63 172.64 208.91C163.91 200.18 165.86 184.09 165.86 184.09C165.86 184.09 181.96 182.15 190.68 190.87Z" fill="#C6DDA5"/>
<path d="M201.971 191.15C193.611 199.99 195.961 215.79 195.961 215.79C195.961 215.79 211.871 217.27 220.241 208.43C228.601 199.59 226.251 183.79 226.251 183.79C226.251 183.79 210.341 182.31 201.971 191.15Z" fill="#C6DDA5"/>
<path d="M259.551 190.87C268.281 199.6 266.331 215.69 266.331 215.69C266.331 215.69 250.231 217.63 241.511 208.91C232.781 200.18 234.731 184.09 234.731 184.09C234.731 184.09 250.831 182.15 259.551 190.87Z" fill="#C6DDA5"/>
<path d="M270.84 191.15C262.48 199.99 264.83 215.79 264.83 215.79C264.83 215.79 280.74 217.27 289.11 208.43C297.47 199.59 295.12 183.79 295.12 183.79C295.12 183.79 279.21 182.31 270.84 191.15Z" fill="#C6DDA5"/>
<path d="M114.329 231.62C123.144 231.62 130.289 226.293 130.289 219.72C130.289 213.148 123.144 207.82 114.329 207.82C105.515 207.82 98.3691 213.148 98.3691 219.72C98.3691 226.293 105.515 231.62 114.329 231.62Z" fill="#DCEAC8"/>
<path d="M136.591 235.92C145.405 235.92 152.551 230.592 152.551 224.02C152.551 217.448 145.405 212.12 136.591 212.12C127.776 212.12 120.631 217.448 120.631 224.02C120.631 230.592 127.776 235.92 136.591 235.92Z" fill="#DCEAC8"/>
<path d="M186.001 228.07C193.699 228.07 199.941 223.691 199.941 218.29C199.941 212.888 193.699 208.51 186.001 208.51C178.302 208.51 172.061 212.888 172.061 218.29C172.061 223.691 178.302 228.07 186.001 228.07Z" fill="#DCEAC8"/>
<path d="M206.991 226.55C214.69 226.55 220.931 222.172 220.931 216.77C220.931 211.369 214.69 206.99 206.991 206.99C199.292 206.99 193.051 211.369 193.051 216.77C193.051 222.172 199.292 226.55 206.991 226.55Z" fill="#DCEAC8"/>
<path d="M257.301 230.9C263.652 230.9 268.801 226.521 268.801 221.12C268.801 215.718 263.652 211.34 257.301 211.34C250.95 211.34 245.801 215.718 245.801 221.12C245.801 226.521 250.95 230.9 257.301 230.9Z" fill="#DCEAC8"/>
<path d="M275.17 227.17C281.521 227.17 286.67 222.792 286.67 217.39C286.67 211.989 281.521 207.61 275.17 207.61C268.819 207.61 263.67 211.989 263.67 217.39C263.67 222.792 268.819 227.17 275.17 227.17Z" fill="#DCEAC8"/>
</g>
</svg>