<svg xmlns="http://www.w3.org/2000/svg" width="143" height="123" viewBox="0 0 302 167" fill="none">
<path d="M158.711 118.561C169.201 143.701 151.721 174.911 151.721 174.911C151.721 174.911 117.241 165.371 106.751 140.241C96.2607 115.101 113.741 83.8906 113.741 83.8906C113.741 83.8906 148.221 93.4307 158.711 118.561Z" fill="#DCEAC8"/>
<path d="M149.331 118.561C138.841 143.701 156.321 174.911 156.321 174.911C156.321 174.911 190.801 165.371 201.291 140.241C211.781 115.101 194.301 83.8906 194.301 83.8906C194.301 83.8906 159.821 93.4307 149.331 118.561Z" fill="#DCEAC8"/>
<path d="M125.771 127.59C125.771 154.44 153.521 176.2 153.521 176.2C153.521 176.2 181.271 154.44 181.271 127.59C181.271 100.74 153.521 78.9805 153.521 78.9805C153.521 78.9805 125.771 100.74 125.771 127.59Z" fill="#C6DDA5"/>
<path d="M141.191 138.501C160.451 157.761 156.161 193.271 156.161 193.271C156.161 193.271 120.641 197.561 101.391 178.301C82.1311 159.041 86.4211 123.531 86.4211 123.531C86.4211 123.531 121.941 119.241 141.191 138.501Z" fill="#DCEAC8"/>
<path d="M166.101 139.111C147.651 158.611 152.841 193.491 152.841 193.491C152.841 193.491 187.951 196.751 206.411 177.251C224.861 157.751 219.671 122.871 219.671 122.871C219.671 122.871 184.561 119.611 166.101 139.111Z" fill="#DCEAC8"/>
<path d="M134.74 16.0205C134.81 25.3305 128.02 32.1105 118.72 32.0405C109.41 32.1105 102.63 25.3205 102.7 16.0205C102.64 6.7105 109.42 -0.0694629 118.72 0.000537077C128.03 -0.0694629 134.81 6.7105 134.74 16.0205Z" fill="#DCEAC8"/>
<path d="M118.08 33.1406C118.15 42.4506 111.36 49.2306 102.06 49.1606C92.7496 49.2306 85.9696 42.4406 86.0396 33.1406C85.9696 23.8306 92.7596 17.0507 102.06 17.1207C111.37 17.0507 118.15 23.8406 118.08 33.1406Z" fill="#DCEAC8"/>
<path d="M134.291 49.0401C134.351 58.3501 127.571 65.1301 118.271 65.0601C108.971 65.1301 102.181 58.3401 102.251 49.0401C102.181 39.7301 108.961 32.9501 118.271 33.0201C127.581 32.9501 134.361 39.7401 134.291 49.0401Z" fill="#DCEAC8"/>
<path d="M151.101 32.5303C151.171 41.8403 144.381 48.6203 135.081 48.5503C125.771 48.6203 118.991 41.8303 119.061 32.5303C118.991 23.2203 125.781 16.4403 135.081 16.5103C144.391 16.4403 151.171 23.2203 151.101 32.5303Z" fill="#DCEAC8"/>
<path d="M285.451 101.171C285.521 110.481 278.741 117.261 269.431 117.191C260.121 117.261 253.341 110.471 253.411 101.171C253.341 91.8609 260.121 85.0809 269.431 85.1509C278.741 85.0809 285.521 91.8709 285.451 101.171Z" fill="#DCEAC8"/>
<path d="M268.791 118.29C268.861 127.6 262.07 134.38 252.77 134.31C243.46 134.38 236.681 127.59 236.751 118.29C236.681 108.98 243.47 102.2 252.77 102.27C262.08 102.2 268.861 108.99 268.791 118.29Z" fill="#DCEAC8"/>
<path d="M284.99 134.19C285.06 143.5 278.28 150.28 268.97 150.21C259.66 150.28 252.88 143.49 252.95 134.19C252.88 124.88 259.66 118.1 268.97 118.17C278.28 118.1 285.06 124.89 284.99 134.19Z" fill="#DCEAC8"/>
<path d="M301.81 117.681C301.88 126.991 295.09 133.771 285.79 133.701C276.48 133.771 269.7 126.981 269.77 117.681C269.7 108.371 276.48 101.591 285.79 101.661C295.1 101.591 301.88 108.381 301.81 117.681Z" fill="#DCEAC8"/>
<path d="M48.7007 116.801C48.7707 126.111 41.9907 132.891 32.6807 132.821C23.3707 132.891 16.5907 126.101 16.6607 116.801C16.5907 107.491 23.3707 100.711 32.6807 100.781C41.9807 100.711 48.7707 107.501 48.7007 116.801Z" fill="#DCEAC8"/>
<path d="M32.0405 133.921C32.1005 143.231 25.3306 150.011 16.0206 149.941C6.71056 150.011 -0.0694629 143.221 0.000537073 133.921C-0.0694629 124.611 6.72056 117.831 16.0206 117.901C25.3306 117.831 32.1105 124.621 32.0405 133.921Z" fill="#DCEAC8"/>
<path d="M48.2515 149.821C48.3215 159.131 41.5415 165.911 32.2315 165.841C22.9215 165.911 16.1415 159.121 16.2115 149.821C16.1415 140.511 22.9315 133.731 32.2315 133.801C41.5415 133.731 48.3215 140.521 48.2515 149.821Z" fill="#DCEAC8"/>
<path d="M65.06 133.311C65.13 142.621 58.3501 149.401 49.0401 149.331C39.7301 149.401 32.9501 142.611 33.0201 133.311C32.9601 124.001 39.7401 117.221 49.0401 117.291C58.3501 117.221 65.13 124.011 65.06 133.311Z" fill="#DCEAC8"/>
<path d="M126.729 31.7309C126.759 36.2109 123.499 39.4809 119.019 39.4409C114.539 39.4709 111.269 36.2109 111.309 31.7309C111.279 27.2509 114.539 23.9809 119.019 24.0209C123.499 23.9909 126.759 27.2509 126.729 31.7309Z" fill="#B9D199"/>
<path d="M277.44 116.881C277.47 121.361 274.21 124.631 269.73 124.591C265.25 124.621 261.98 121.361 262.02 116.881C261.99 112.401 265.25 109.131 269.73 109.171C274.21 109.141 277.48 112.401 277.44 116.881Z" fill="#B9D199"/>
<path d="M40.6899 132.521C40.7199 137.001 37.4599 140.271 32.9799 140.231C28.4999 140.261 25.2299 137.001 25.2699 132.521C25.2399 128.041 28.4999 124.771 32.9799 124.811C37.4599 124.781 40.7199 128.041 40.6899 132.521Z" fill="#B9D199"/>
<path d="M208.091 38.6305C208.151 38.3005 208.091 37.9606 207.951 37.6606C204.251 30.2906 197.711 26.3406 193.041 28.6506C190.661 29.8306 189.221 32.3906 188.971 35.8606C188.831 39.4006 189.621 42.9205 191.251 46.0705C191.951 47.5805 192.791 49.0106 193.761 50.3606C193.811 50.4306 193.871 50.4906 193.931 50.5406L202.291 58.3305C202.921 58.9205 203.911 58.8906 204.501 58.2506C204.711 58.0306 204.851 57.7505 204.901 57.4405L208.091 38.6106V38.6305Z" fill="#DCEAC8"/>
<path d="M215.351 52.1007L195.891 48.0807C189.931 46.8507 184.161 50.3407 183.021 55.8507C181.881 61.3707 185.801 66.8507 191.761 68.0807L211.221 72.1007C217.171 73.3307 222.951 69.8407 224.081 64.3207C225.221 58.8007 221.301 53.3207 215.351 52.0907V52.1007Z" fill="#DCEAC8"/>
<mask id="mask0_1712_7013" style="mask-type:luminance" maskUnits="userSpaceOnUse" x="184" y="47" width="39" height="26">
<path d="M214.721 51.9708L196.521 48.2108C191.011 47.0208 185.571 50.5208 184.371 56.0308C183.181 61.5408 186.681 66.9808 192.191 68.1808C192.251 68.1908 192.321 68.2108 192.381 68.2208L210.581 71.9808C216.091 73.1708 221.531 69.6708 222.731 64.1608C223.921 58.6508 220.421 53.2108 214.911 52.0108C214.851 52.0008 214.781 51.9808 214.721 51.9708Z" fill="white"/>
</mask>
<g mask="url(#mask0_1712_7013)">
<path d="M213.031 48.8708C213.081 48.1408 212.611 47.4808 211.901 47.3108L201.281 44.9507C200.841 44.8407 200.381 44.9507 200.041 45.2607C199.691 45.5607 199.481 46.0008 199.481 46.4608C199.451 50.9808 199.121 55.4908 198.491 59.9608C197.831 63.2208 196.841 66.4108 195.531 69.4708C195.341 69.9108 195.351 70.4108 195.571 70.8408C195.771 71.2308 196.131 71.5108 196.551 71.6008C196.581 71.6008 196.601 71.6008 196.631 71.6108L206.751 73.1008C207.431 73.1908 208.081 72.8008 208.331 72.1708C209.601 69.0808 210.581 65.8808 211.251 62.6008C211.801 59.9508 212.901 51.4908 213.041 48.8708H213.031Z" fill="#B9D199"/>
</g>
<path d="M226.53 34.8002C226.4 34.6002 226.27 34.4102 226.12 34.2302C222.73 30.2302 215.11 31.3102 208.78 36.6802C202.57 41.9402 200.24 49.0801 203.34 53.1301C203.4 53.2101 203.46 53.3101 203.53 53.3901C204.54 54.5501 205.91 55.3302 207.43 55.6102C211.25 56.4002 216.38 54.7501 220.87 50.9401C223.62 48.7001 225.74 45.7801 227.01 42.4701C228.06 39.4801 227.88 36.7902 226.54 34.8002H226.53Z" fill="#DCEAC8"/>
</svg>