<svg xmlns="http://www.w3.org/2000/svg" width="45" height="38" viewBox="0 0 45 38" fill="none">
<g clip-path="url(#clip0_495_1473)">
<path d="M22.1047 5.19768L22.5006 5.70888L22.8957 5.19714C25.0989 2.34408 28.5511 0.5 32.4381 0.5C39.1011 0.5 44.5 5.89295 44.5 12.5459C44.5 20.8338 39.0302 27.0677 33.4494 31.2669C30.6676 33.3599 27.8829 34.928 25.7921 35.9731C24.7473 36.4953 23.8775 36.8861 23.2702 37.1458C22.9666 37.2757 22.7287 37.3727 22.5675 37.437C22.5432 37.4467 22.5207 37.4556 22.5 37.4638C22.4793 37.4556 22.4568 37.4467 22.4325 37.437C22.2713 37.3727 22.0334 37.2757 21.7298 37.1458C21.1225 36.8861 20.2527 36.4953 19.2079 35.9731C17.1171 34.928 14.3324 33.3599 11.5506 31.2669C5.96982 27.0677 0.5 20.8338 0.5 12.5459C0.5 5.89295 5.89892 0.5 12.5619 0.5C16.4485 0.5 19.8946 2.34378 22.1047 5.19768Z" stroke="#AFD082"/>
</g>
<defs>
<clipPath id="clip0_495_1473">
<rect width="45" height="38" fill="white"/>
</clipPath>
</defs>
</svg>