<svg xmlns="http://www.w3.org/2000/svg" width="27" height="21" viewBox="0 0 27 21" fill="none">
<g clip-path="url(#clip0_600_888)">
<path d="M14.2536 9.43164H12.6875V15.8762H14.2536V9.43164Z" fill="#A8D178"/>
<path d="M11.4503 2.20018C14.1314 4.88134 13.5329 9.83368 13.5329 9.83368C13.5329 9.83368 8.58055 10.4322 5.8994 7.75107C3.21825 5.06992 3.81679 0.117574 3.81679 0.117574C3.81679 0.117574 8.76914 -0.480971 11.4503 2.20018Z" fill="#A8D178"/>
<path d="M15.1963 2.20018C12.5151 4.88134 13.1137 9.83368 13.1137 9.83368C13.1137 9.83368 18.066 10.4322 20.7472 7.75107C23.4283 5.06992 22.8298 0.117574 22.8298 0.117574C22.8298 0.117574 17.8774 -0.480971 15.1963 2.20018Z" fill="#414C38"/>
<path d="M24.7879 15.5078H2.14977C1.42524 15.5078 0.837891 16.0952 0.837891 16.8197V19.0417C0.837891 19.7662 1.42524 20.3536 2.14977 20.3536H24.7879C25.5124 20.3536 26.0998 19.7662 26.0998 19.0417V16.8197C26.0998 16.0952 25.5124 15.5078 24.7879 15.5078Z" fill="#F77800"/>
</g>
<defs>
<clipPath id="clip0_600_888">
<rect width="25.2619" height="20.2931" fill="white" transform="translate(0.837891 0.0605469)"/>
</clipPath>
</defs>
</svg>