<svg width="28" height="40" viewBox="0 0 28 40" fill="none" xmlns="http://www.w3.org/2000/svg">
<g clip-path="url(#clip0_219_209)">
<path d="M26.7821 10.353C25.1426 8.32203 22.171 7.54184 19.6348 7.81429C19.5836 7.71522 19.558 7.60376 19.4939 7.50469L17.9185 4.89169L15.6513 1.12698C14.8443 -0.222862 12.8974 -0.396237 11.8471 0.792618L6.26246 7.07126L0.216713 13.8948C-0.334065 14.514 0.229522 15.4552 1.06209 15.3065L10.1948 13.5976C13.2304 13.0527 16.4583 12.7802 19.2121 11.3313C20.7108 10.5511 22.6833 10.6254 23.8873 11.8886C26.4875 14.6254 22.9139 18.7121 21.0566 20.7926C20.6083 21.3004 15.9203 25.8824 15.7922 25.7338L17.8672 28.0867C29.9971 18.0929 28.6522 12.6812 26.7693 10.3406L26.7821 10.353Z" fill="#DDDDDD"/>
<path d="M22.4064 25.123L18.6904 21.7668L4.31572 36.6445L8.03169 40.0006L22.4064 25.123Z" fill="#8BC34A"/>
</g>
<defs>
<clipPath id="clip0_219_209">
<rect width="28" height="40" fill="white"/>
</clipPath>
</defs>
</svg>
