<svg width="20" height="20" viewBox="0 0 20 20" fill="none" xmlns="http://www.w3.org/2000/svg">
<path fill-rule="evenodd" clip-rule="evenodd" d="M10 19.0076C15.5228 19.0076 20 14.7902 20 9.58776C20 4.38535 15.5228 0.167969 10 0.167969C4.47715 0.167969 0 4.38535 0 9.58776C0 14.7902 4.47715 19.0076 10 19.0076ZM7.55728 12.8847C7.0368 13.4057 7.03716 14.2499 7.55808 14.7704C8.079 15.2908 8.92322 15.2905 9.4437 14.7696L13.4437 10.7661C13.9639 10.2455 13.9639 9.40194 13.4437 8.88133L9.4437 4.87791C8.92322 4.35699 8.079 4.35663 7.55808 4.87711C7.03716 5.39759 7.0368 6.24181 7.55728 6.76273L10.6157 9.82374L7.55728 12.8847Z" fill="white" fill-opacity="0.7"/>
</svg>
