<svg width="26" height="26" viewBox="0 0 26 26" fill="currentColor" xmlns="http://www.w3.org/2000/svg">
<path fill-rule="evenodd" clip-rule="evenodd" d="M13 -1.1365e-06C5.8203 -1.76417e-06 1.76417e-06 5.8203 1.1365e-06 13C5.08827e-07 20.1797 5.8203 26 13 26C20.1797 26 26 20.1797 26 13C26 5.8203 20.1797 -5.08827e-07 13 -1.1365e-06ZM15.9205 8.06323C16.4252 7.527 16.3996 6.68317 15.8634 6.17848C15.3272 5.67379 14.4833 5.69936 13.9787 6.23559L8.77865 11.7606C8.29545 12.274 8.29545 13.0748 8.77865 13.5882L13.9787 19.1132C14.4833 19.6495 15.3272 19.675 15.8634 19.1703C16.3996 18.6657 16.4252 17.8218 15.9205 17.2856L11.5806 12.6744L15.9205 8.06323Z" fill="white" fill-opacity="0.7"/>
</svg>
