<svg width="122" height="111" viewBox="0 0 122 111" fill="none" xmlns="http://www.w3.org/2000/svg">
<path d="M61.2704 52.9946C75.8878 52.9946 87.7375 41.132 87.7375 26.4987C87.7375 11.8653 75.8878 0.00268555 61.2704 0.00268555C46.653 0.00268555 34.8032 11.8653 34.8032 26.4987C34.8032 41.132 46.653 52.9946 61.2704 52.9946Z" fill="#FFD764"/>
<path d="M49.0474 61.8994C66.1653 79.0359 62.3509 110.637 62.3509 110.637C62.3509 110.637 30.7844 114.455 13.6665 97.3188C-3.45144 80.1823 0.362992 48.5814 0.362992 48.5814C0.362992 48.5814 31.9295 44.7628 49.0474 61.8994Z" fill="#A8D178"/>
<path d="M72.9502 61.8994C55.8323 79.0359 59.6467 110.637 59.6467 110.637C59.6467 110.637 91.2132 114.455 108.331 97.3188C125.449 80.1823 121.635 48.5814 121.635 48.5814C121.635 48.5814 90.0681 44.7628 72.9502 61.8994Z" fill="#414C38"/>
<path d="M81.5717 26.6923L61.1421 6.24048L40.7125 26.6923L61.1421 47.1442L81.5717 26.6923Z" fill="#F77800"/>
</svg>

