<svg xmlns="http://www.w3.org/2000/svg" width="40" height="40" fill="none"><g fill-rule="evenodd" clip-path="url(#a)" clip-rule="evenodd"><path fill="#3E82F1" d="M40 20.454c0-1.419-.131-2.781-.371-4.09h-19.22v7.735h10.983c-.473 2.5-1.911 4.619-4.072 6.037v5.018h6.596c3.86-3.482 6.086-8.609 6.086-14.7H40Z"/><path fill="#32A753" d="M20.409 40c5.51 0 10.13-1.792 13.506-4.846l-6.596-5.018c-1.829 1.2-4.165 1.909-6.912 1.909-5.316 0-9.815-3.518-11.42-8.245H2.17v5.181C5.53 35.517 12.43 40 20.409 40Z"/><path fill="#F9BB00" d="M8.988 23.8a11.82 11.82 0 0 1-.64-3.8c0-1.319.233-2.6.64-3.8v-5.181H2.171a19.663 19.663 0 0 0 0 17.963L8.988 23.8Z"/><path fill="#E74133" d="M20.409 7.955c2.995 0 5.687 1.01 7.802 2.99l5.854-5.737C30.53 1.982 25.91 0 20.41 0 12.43 0 5.529 4.482 2.17 11.018L8.988 16.2c1.606-4.728 6.105-8.245 11.42-8.245Z"/></g><defs><clipPath id="a"><path fill="#fff" d="M0 0h40v40H0z"/></clipPath></defs></svg>