<svg width="190" height="140" viewBox="0 0 190 140" fill="none" xmlns="http://www.w3.org/2000/svg">
<g clip-path="url(#clip0_219_133)">
<path d="M119.196 36.5829V40.1601H93.9023V60.795H89.7449V40.1601H64.4512V36.5829H119.196ZM65.1441 2.59692H118.503V6.1741H69.3015V24.1952H118.852V27.7724H65.1441V2.59692Z" fill="#414C38"/>
<path d="M128.902 57.2179H169.096V60.795H128.902V57.2179ZM178.797 2.59692H182.954V60.795H178.797V2.59692Z" fill="#414C38"/>
<path d="M27.2654 119.224H31.8397L55.6294 137.104L53.1169 140L29.5526 122.114L5.98829 140L3.77438 136.811L27.2654 119.224ZM5.43622 95.5584H32.3918V99.1356H5.43622V110.278H15.6945C23.3165 110.278 30.1779 109.8 36.2056 109.039V112.616C30.1779 113.371 23.3165 113.856 15.6945 113.856H1.27881V81.7961H34.4705V85.3733H5.43622V95.5528V95.5584ZM50.4805 95.5584V81.8018H54.6379V118.537H50.4805V99.1356H35.3718V95.5584H50.4805Z" fill="#414C38"/>
<path d="M148.54 46.8807C161.486 46.8807 171.98 36.3861 171.98 23.4404C171.98 10.4946 161.486 0 148.54 0C135.594 0 125.1 10.4946 125.1 23.4404C125.1 36.3861 135.594 46.8807 148.54 46.8807Z" fill="#FFD764"/>
<path d="M159.328 110.453C166.621 110.453 172.533 104.541 172.533 97.2485C172.533 89.9558 166.621 84.0439 159.328 84.0439C152.035 84.0439 146.124 89.9558 146.124 97.2485C146.124 104.541 152.035 110.453 159.328 110.453Z" fill="#FFD764"/>
<path d="M153.227 114.898C161.767 123.438 159.869 139.194 159.869 139.194C159.869 139.194 144.118 141.099 135.572 132.553C127.032 124.013 128.93 108.256 128.93 108.256C128.93 108.256 144.681 106.352 153.227 114.898Z" fill="#A8D178"/>
<path d="M165.153 114.898C156.613 123.438 158.511 139.194 158.511 139.194C158.511 139.194 174.262 141.099 182.808 132.553C191.348 124.013 189.45 108.256 189.45 108.256C189.45 108.256 173.699 106.352 165.153 114.898Z" fill="#414C38"/>
<path d="M116.318 93.6994V81.8018H112.16V111.174H116.318V97.2766H125.331V93.6994H116.318Z" fill="#414C38"/>
<path d="M100.381 81.8018H96.2233V89.2885H100.336V107.969H65.7412V89.2885H69.8874V81.8018H65.73V108.008H100.381V81.8018Z" fill="#414C38"/>
<path d="M70.5803 128.784H116.317V125.207H70.5803V118.193H116.317V114.616H66.4229V140H117.01V136.423H70.5803V128.784Z" fill="#414C38"/>
<path d="M96.2683 89.2886H69.893H65.7412V108.042H100.381V89.2886H96.2683Z" fill="#A8D178"/>
<path d="M54.0574 2.59692H54.0405V36.0308H54.0574V2.59692Z" fill="#414C38"/>
<path d="M29.4512 57.2178V36.8477H25.2937V57.2178H0V60.795H54.7449V57.2178H29.4512Z" fill="#414C38"/>
<path d="M0.585938 2.51807V36.8477H25.2938H29.4512H54.0408V36.0309V2.59693V2.51807H0.585938Z" fill="#F77800"/>
<path d="M169.459 97.3507L159.265 87.1572L149.072 97.3507L159.265 107.544L169.459 97.3507Z" fill="#F77800"/>
</g>
<defs>
<clipPath id="clip0_219_133">
<rect width="189.63" height="140" fill="white"/>
</clipPath>
</defs>
</svg>
