<svg width="39" height="38" viewBox="0 0 39 38" fill="none" xmlns="http://www.w3.org/2000/svg">
<path d="M12.5344 35.1826L0.0517578 37.8699V4.21134L12.5344 1.51172V35.1826Z" fill="#C8D2C8"/>
<path d="M36.9431 35.2687L24.4604 37.9559V4.29734L36.9431 1.61011V35.2687Z" fill="#C8D2C8"/>
<path d="M24.4841 37.9566L12.5464 35.1826V1.51172L24.4841 4.29802V37.9566Z" fill="#B2BDAF"/>
<path d="M37.1142 2.47671C35.9377 0.904001 34.0307 0 32.0617 0C30.1175 0.0247671 28.2228 0.916384 27.0587 2.4891C25.7337 4.27233 25.5603 6.73666 26.1919 8.8171C26.6501 10.3155 27.5541 11.6406 28.7057 12.6932C29.6097 13.5105 30.6747 14.1544 31.7769 14.6745C31.8759 14.7241 31.9626 14.7612 32.0617 14.8108C32.1607 14.7612 32.2598 14.7241 32.3589 14.6745C33.4734 14.1544 34.526 13.5105 35.43 12.6932C36.5941 11.6406 37.4857 10.3155 37.9439 8.8171C38.5878 6.73666 38.4144 4.27233 37.077 2.4891L37.1142 2.47671Z" fill="#B2BDAF"/>
<path d="M32.1487 8.63119C33.5029 8.63119 34.6007 7.53341 34.6007 6.17924C34.6007 4.82507 33.5029 3.72729 32.1487 3.72729C30.7946 3.72729 29.6968 4.82507 29.6968 6.17924C29.6968 7.53341 30.7946 8.63119 32.1487 8.63119Z" fill="white"/>
</svg>
