<svg width="20" height="20" viewBox="0 0 20 20" fill="none" xmlns="http://www.w3.org/2000/svg">
<g id="fluent:my-location-24-regular">
<path id="Vector" d="M10.0001 1.6665C10.1512 1.66651 10.2971 1.72121 10.4109 1.82048C10.5247 1.91975 10.5988 2.05688 10.6193 2.2065L10.6251 2.2915V3.7815C12.0599 3.92562 13.4007 4.56141 14.4202 5.58112C15.4398 6.60083 16.0754 7.94172 16.2193 9.3765L16.2501 9.37484H17.7085C17.8668 9.37489 18.0193 9.43504 18.135 9.54315C18.2507 9.65126 18.321 9.79925 18.3318 9.95724C18.3426 10.1152 18.293 10.2714 18.1931 10.3943C18.0932 10.5171 17.9503 10.5974 17.7935 10.619L17.7085 10.6248L16.2185 10.624C16.0745 12.0589 15.4388 13.3999 14.4191 14.4196C13.3994 15.4394 12.0584 16.0751 10.6235 16.219L10.6251 16.2498V17.7082C10.6251 17.8665 10.5649 18.019 10.4568 18.1347C10.3487 18.2504 10.2007 18.3207 10.0427 18.3315C9.88475 18.3423 9.72856 18.2927 9.60572 18.1928C9.48288 18.0929 9.40255 17.95 9.38097 17.7932L9.37513 17.7082L9.37597 16.2182C7.94106 16.0742 6.60007 15.4385 5.58034 14.4188C4.56062 13.3991 3.9249 12.0581 3.78097 10.6232L3.75014 10.6248H2.2918C2.13345 10.6248 1.98102 10.5646 1.86531 10.4565C1.7496 10.3484 1.67924 10.2004 1.66845 10.0424C1.65765 9.88445 1.70723 9.72826 1.80716 9.60542C1.90709 9.48258 2.04993 9.40226 2.2068 9.38067L2.2918 9.37484H3.7818C3.92592 7.94008 4.56171 6.59928 5.58142 5.57973C6.60113 4.56017 7.94202 3.92457 9.3768 3.78067L9.37513 3.74984V2.2915C9.37513 2.12574 9.44098 1.96677 9.55819 1.84956C9.6754 1.73235 9.83437 1.6665 10.0001 1.6665ZM10.0001 4.99984C8.67405 4.99984 7.40228 5.52662 6.4646 6.4643C5.52692 7.40199 5.00014 8.67376 5.00014 9.99984C5.00014 11.3259 5.52692 12.5977 6.4646 13.5354C7.40228 14.4731 8.67405 14.9998 10.0001 14.9998C11.3262 14.9998 12.598 14.4731 13.5357 13.5354C14.4734 12.5977 15.0001 11.3259 15.0001 9.99984C15.0001 8.67376 14.4734 7.40199 13.5357 6.4643C12.598 5.52662 11.3262 4.99984 10.0001 4.99984ZM10.0001 6.6665C10.8842 6.6665 11.732 7.01769 12.3572 7.64281C12.9823 8.26794 13.3335 9.11578 13.3335 9.99984C13.3335 10.8839 12.9823 11.7317 12.3572 12.3569C11.732 12.982 10.8842 13.3332 10.0001 13.3332C9.11608 13.3332 8.26823 12.982 7.64311 12.3569C7.01799 11.7317 6.6668 10.8839 6.6668 9.99984C6.6668 9.11578 7.01799 8.26794 7.64311 7.64281C8.26823 7.01769 9.11608 6.6665 10.0001 6.6665Z" fill="#6D993E"/>
</g>
</svg>
