<svg width="32" height="27" viewBox="0 0 32 27" fill="none" xmlns="http://www.w3.org/2000/svg">
<rect width="31.8214" height="27" rx="5.30357" fill="#DCEAC8"/>
<circle cx="25.0709" cy="6.26814" r="2.41071" fill="#F1F7E8"/>
<path fill-rule="evenodd" clip-rule="evenodd" d="M8.57117 12.3564C9.51852 10.8682 11.6911 10.8682 12.6385 12.3564L15.9084 17.4932L19.1783 12.3564C20.1257 10.8682 22.2982 10.8682 23.2456 12.3564L28.0608 19.9207C29.0824 21.5256 27.9296 23.626 26.0271 23.626L19.7408 23.626L16.3968 23.626C16.396 23.626 16.3953 23.626 16.3946 23.626H15.4222C15.4215 23.626 15.4207 23.626 15.42 23.626L12.5087 23.626L5.78963 23.626C3.8872 23.626 2.73439 21.5256 3.75599 19.9207L8.57117 12.3564Z" fill="#F1F7E8"/>
</svg>
