<svg width="14" height="14" viewBox="0 0 14 14" fill="none" xmlns="http://www.w3.org/2000/svg">
<g id="simple-line-icons:magnifier" clip-path="url(#clip0_193_15278)">
<path id="Vector" d="M13.8723 13.2486L9.62127 8.97159C10.4136 8.02266 10.8911 6.80181 10.8911 5.46875C10.8911 2.44847 8.44264 0 5.42236 0C2.40208 0 -0.0463867 2.44847 -0.0463867 5.46875C-0.0463867 8.48903 2.40208 10.9375 5.42236 10.9375C6.79458 10.9375 8.04802 10.4309 9.00833 9.59569L13.2534 13.8674C13.4242 14.0383 13.7014 14.0383 13.8723 13.8674C14.0429 13.6966 14.0429 13.4197 13.8723 13.2486H13.8723ZM5.42236 10.0697C2.88136 10.0697 0.821395 8.00975 0.821395 5.46875C0.821395 2.92775 2.88136 0.867781 5.42236 0.867781C7.96336 0.867781 10.0233 2.92775 10.0233 5.46875C10.0233 8.00975 7.96336 10.0697 5.42236 10.0697Z" fill="#9D9D9D"/>
</g>
<defs>
<clipPath id="clip0_193_15278">
<rect width="14" height="14" fill="white"/>
</clipPath>
</defs>
</svg>
