<svg width="20" height="23" viewBox="0 0 20 23" fill="none" xmlns="http://www.w3.org/2000/svg">
<path d="M0 21C0 17.134 3.13401 14 7 14H13C16.866 14 20 17.134 20 21C20 22.1046 19.1046 23 18 23H2C0.895431 23 0 22.1046 0 21Z" fill="#C8D2C8"/>
<circle cx="10" cy="8" r="5" fill="#C8D2C8"/>
<path d="M15 5.5C15 4.04131 14.4732 2.64236 13.5355 1.61091C12.5979 0.579463 11.3261 1.10128e-07 10 0C8.67392 -1.10128e-07 7.40215 0.579462 6.46447 1.61091C5.52678 2.64236 5 4.04131 5 5.5L10 5.5H15Z" fill="#B2BDAF"/>
<ellipse cx="10" cy="6" rx="8" ry="2" fill="#B2BDAF"/>
</svg>
