<svg width="42" height="42" viewBox="0 0 42 42" fill="none" xmlns="http://www.w3.org/2000/svg">
<mask id="mask0_1185_2343" style="mask-type:luminance" maskUnits="userSpaceOnUse" x="0" y="0" width="42" height="42">
<path d="M37.1872 0H4.81281C2.15477 0 0 2.15477 0 4.81281V37.1872C0 39.8452 2.15477 42 4.81281 42H37.1872C39.8452 42 42 39.8452 42 37.1872V4.81281C42 2.15477 39.8452 0 37.1872 0Z" fill="white"/>
</mask>
<g mask="url(#mask0_1185_2343)">
<path d="M25.0504 30.6607C30.3813 25.9774 37.3564 23.1276 45.0091 23.1276C46.6831 23.1276 48.3173 23.2671 49.9215 23.5262C49.9813 22.7489 50.0212 21.9617 50.0212 21.1546C50.0212 5.17171 37.0575 -7.79199 21.0746 -7.79199C5.09163 -7.79199 -7.87207 5.17171 -7.87207 21.1546C-7.87207 22.0215 -7.82225 22.8785 -7.7525 23.7155C-4.28488 22.3304 -0.508369 21.5632 3.4475 21.5632C11.9073 21.5632 19.56 25.0407 25.0504 30.6507V30.6607Z" fill="#FEF4E1"/>
<path d="M15.0267 49.4736C15.9833 42.0103 19.6701 35.3939 25.0509 30.6608C19.5605 25.0608 11.9178 21.5732 3.44805 21.5732C-0.507823 21.5732 -4.28434 22.3405 -7.75195 23.7256C-6.63594 36.48 2.76051 46.8629 15.0267 49.4736Z" fill="#F7CB8A"/>
<path d="M25.0498 30.66C29.4142 35.1141 32.4135 40.9134 33.3601 47.3704C42.5274 43.0657 49.064 34.0978 49.921 23.5255C48.3267 23.2664 46.6825 23.127 45.0085 23.127C37.3559 23.127 30.3708 25.9768 25.0498 30.66Z" fill="#F3B860"/>
<path d="M15.0264 49.4737C16.9794 49.8922 19.0022 50.1115 21.0748 50.1115C25.4691 50.1115 29.6342 49.125 33.3609 47.3812C32.4143 40.9143 29.415 35.125 25.0506 30.6709C19.6698 35.404 15.9929 42.0104 15.0264 49.4837V49.4737Z" fill="#F3B860"/>
</g>
<path fill-rule="evenodd" clip-rule="evenodd" d="M9.45319 13.9703H11.6653H11.8845H11.9144H11.9941C12.0539 13.9802 12.1137 14.0002 12.1734 14.0201L12.1735 14.0201C12.1819 14.0201 12.1992 14.0272 12.2119 14.0324C12.2278 14.0389 12.2364 14.0425 12.2112 14.0254L12.2432 14.04C12.2674 14.0521 12.2915 14.0678 12.3179 14.085L12.3179 14.085C12.335 14.0962 12.3531 14.1079 12.3728 14.1197C12.3171 14.0864 12.3267 14.0934 12.3513 14.1113C12.3707 14.1254 12.3994 14.1464 12.4126 14.1596C12.4326 14.1795 12.4525 14.1995 12.4724 14.2293C12.4824 14.246 12.4923 14.2615 12.5023 14.277C12.5222 14.308 12.5422 14.339 12.5621 14.3788C12.5621 14.3866 12.5864 14.437 12.5876 14.4301C12.5933 14.4435 12.5989 14.4555 12.6019 14.4585L12.6318 14.5781C12.6368 14.598 12.6418 14.6204 12.6468 14.6429L12.6468 14.6429L12.6468 14.6429C12.6518 14.6653 12.6568 14.6877 12.6617 14.7076C12.7215 14.9667 12.7813 15.2358 12.8311 15.4948C12.9407 16.003 13.0528 16.5136 13.1649 17.0243C13.277 17.535 13.3891 18.0457 13.4987 18.5539C13.6373 19.1826 13.7735 19.8112 13.9096 20.4399C13.9139 20.4855 13.9235 20.5293 13.9379 20.5705C14.0664 21.1638 14.195 21.7571 14.3258 22.3503C14.4404 22.8685 14.5525 23.3866 14.6646 23.9048C14.7767 24.4229 14.8888 24.9411 15.0034 25.4592C15.0281 25.5697 15.0506 25.6837 15.0735 25.7992C15.1887 26.3819 15.3116 27.0031 15.7607 27.4023C16.0926 27.6952 16.5011 27.8542 16.9486 27.8698C16.9058 27.9107 16.8653 27.9542 16.8275 28.0001C16.3791 28.5381 16.2894 29.3154 16.6681 29.9232C17.0368 30.531 17.7343 30.81 18.4218 30.6805C19.1791 30.541 19.7172 29.8235 19.7272 29.0663C19.7272 29.0263 19.7217 28.9866 19.7115 28.948C19.6767 28.5269 19.4891 28.1478 19.1952 27.8706H24.9194C24.8769 27.9113 24.8367 27.9545 24.7992 28.0001C24.3508 28.5381 24.2611 29.3154 24.6398 29.9232C25.0084 30.531 25.706 30.81 26.3935 30.6805C27.1508 30.541 27.6889 29.8235 27.6988 29.0663C27.6988 29.0263 27.6934 28.9866 27.6832 28.948C27.6484 28.5269 27.4608 28.1479 27.1669 27.8706H27.6382C27.8973 27.8706 28.1464 27.6415 28.1365 27.3724C28.1265 27.1034 27.9173 26.8742 27.6382 26.8742H18.74H16.9763H16.9165C16.8966 26.8742 16.8667 26.8742 16.8368 26.8642C16.8069 26.8592 16.777 26.8493 16.7471 26.8393L16.7471 26.8393C16.7274 26.8327 16.7077 26.8262 16.688 26.821L16.6774 26.8144C16.6674 26.8094 16.655 26.8044 16.6425 26.7995L16.6425 26.7995C16.6301 26.7945 16.6176 26.7895 16.6076 26.7845C16.5877 26.7745 16.5678 26.7646 16.5479 26.7446C16.5479 26.7446 16.4382 26.6749 16.508 26.7148L16.508 26.7148C16.5268 26.7273 16.5338 26.7319 16.5339 26.7318L16.5326 26.7308L16.528 26.7272C16.518 26.7198 16.498 26.7048 16.4881 26.6948C16.4781 26.6849 16.4656 26.6749 16.4532 26.6649C16.4407 26.655 16.4283 26.645 16.4183 26.635C16.4084 26.6251 16.4009 26.6151 16.3934 26.6052L16.3934 26.6051C16.3859 26.5952 16.3785 26.5852 16.3685 26.5753C16.3585 26.5587 16.3486 26.5432 16.3386 26.5277L16.3386 26.5276C16.3187 26.4966 16.2987 26.4656 16.2788 26.4258C16.2738 26.4158 16.2689 26.4034 16.2639 26.3909L16.2618 26.3857L16.2625 26.3868L16.2625 26.3869C16.2781 26.411 16.2878 26.4261 16.2489 26.356C16.2532 26.3646 16.2575 26.375 16.2618 26.3857L16.2489 26.366C16.229 26.3162 16.219 26.2664 16.2091 26.2165V26.1767C16.1842 26.0721 16.1617 25.9699 16.1393 25.8678C16.1169 25.7656 16.0945 25.6635 16.0696 25.5589C16.019 25.3302 15.9685 25.101 15.9181 24.8714H26.691C26.867 24.8714 27.0431 24.8736 27.2191 24.8758C27.5712 24.8803 27.9232 24.8847 28.2753 24.8714H28.2952C28.5145 24.8714 28.7237 24.712 28.7735 24.5027L29.4212 22.1312C29.5956 21.5034 29.7675 20.8731 29.9394 20.2428C30.1113 19.6126 30.2832 18.9824 30.4575 18.3547L30.6967 17.4878C30.7864 17.159 30.5372 16.88 30.2184 16.8501C29.9394 16.8301 29.6629 16.8102 29.3864 16.7903C29.1099 16.7703 28.8334 16.7504 28.5543 16.7305C27.8917 16.6807 27.2266 16.6333 26.5614 16.586L26.5613 16.586C25.8962 16.5387 25.2312 16.4913 24.5686 16.4415C23.7418 16.3795 22.915 16.3202 22.0869 16.2608L22.0867 16.2607C21.3179 16.2056 20.548 16.1503 19.7757 16.0928L19.7746 16.0927L19.7746 16.0927L19.7745 16.0927L19.7745 16.0927L19.7745 16.0927L19.7745 16.0927L19.7745 16.0927L19.7745 16.0927C18.3898 15.9931 17.0052 15.8934 15.6106 15.7839C15.3912 15.7675 15.1708 15.749 14.9501 15.7304L14.9501 15.7304L14.95 15.7304L14.95 15.7304L14.95 15.7304L14.95 15.7304L14.95 15.7304L14.95 15.7304C14.6037 15.7013 14.2564 15.6721 13.9109 15.6511L13.9073 15.6343C13.8724 15.4699 13.835 15.303 13.7977 15.1361C13.7603 14.9692 13.7229 14.8023 13.6881 14.6379C13.6769 14.5902 13.6664 14.541 13.6559 14.4913L13.6559 14.4913L13.6559 14.4913L13.6559 14.4913L13.6559 14.4913C13.629 14.3643 13.6015 14.2343 13.5585 14.1197C13.3493 13.5817 12.9009 13.1432 12.3329 13.0137C12.1137 12.9639 11.8945 12.9639 11.6653 12.9639H9.47312C9.21404 12.9639 8.96493 13.193 8.9749 13.4621C8.98486 13.7311 9.19412 13.9603 9.47312 13.9603L9.45319 13.9703ZM26.6943 29.0325C26.6956 29.0168 26.6969 28.9995 26.6969 28.9835C26.6953 28.979 26.6938 28.9733 26.6924 28.9666C26.6898 28.9562 26.6872 28.9409 26.6842 28.9235C26.6759 28.8747 26.6647 28.8093 26.6426 28.7873C26.6227 28.7673 26.6127 28.7474 26.6027 28.7275C26.6006 28.7232 26.598 28.717 26.595 28.7101C26.5916 28.702 26.5877 28.6929 26.5835 28.6841C26.5794 28.6824 26.5727 28.6774 26.5629 28.6677C26.536 28.634 26.5045 28.6049 26.4746 28.5773C26.4603 28.564 26.4463 28.5511 26.4334 28.5381C26.4234 28.5332 26.4134 28.5257 26.4035 28.5182L26.4035 28.5182C26.3935 28.5107 26.3835 28.5033 26.3736 28.4983C26.3586 28.4933 26.3462 28.4858 26.3337 28.4784C26.3213 28.4709 26.3088 28.4634 26.2939 28.4584C26.2042 28.4086 26.3138 28.4584 26.3138 28.4584C26.2839 28.4285 26.1743 28.4086 26.1344 28.4086H26.0547H25.975H25.9551C25.949 28.4086 25.9437 28.4083 25.9392 28.4078C25.9142 28.411 25.8859 28.42 25.861 28.4279C25.8479 28.4321 25.8357 28.4359 25.8255 28.4385C25.8219 28.4385 25.8115 28.4412 25.7998 28.4446C25.7943 28.448 25.7864 28.4525 25.7757 28.4584C25.7508 28.4684 25.7284 28.4833 25.706 28.4983C25.6895 28.5093 25.673 28.5202 25.6556 28.5292C25.6491 28.5415 25.6388 28.55 25.627 28.5597C25.6204 28.5651 25.6134 28.5709 25.6063 28.578C25.5849 28.5994 25.5665 28.6207 25.5493 28.6405L25.5492 28.6406C25.5344 28.6577 25.5205 28.6737 25.5067 28.6876L25.5009 28.692L25.4967 28.6976C25.4892 28.7075 25.4818 28.7175 25.4768 28.7275C25.4718 28.7424 25.4643 28.7549 25.4568 28.7673C25.4494 28.7798 25.4419 28.7922 25.4369 28.8072C25.3871 28.8969 25.4369 28.7873 25.4369 28.7873C25.417 28.8072 25.3971 28.8969 25.3971 28.9268C25.3971 28.9317 25.3946 28.9466 25.3921 28.9615L25.3921 28.9616C25.3896 28.9766 25.3871 28.9915 25.3871 28.9965V29.126C25.3871 29.1307 25.387 29.1349 25.387 29.1386C25.3869 29.1408 25.3868 29.1428 25.3868 29.1447L25.3871 29.146C25.3971 29.1659 25.407 29.1958 25.407 29.2157C25.407 29.2257 25.412 29.2381 25.417 29.2506C25.422 29.2631 25.4269 29.2755 25.4269 29.2855C25.4284 29.2898 25.4294 29.2943 25.4301 29.2985C25.4383 29.3148 25.4489 29.3317 25.4592 29.3482C25.4694 29.3645 25.4794 29.3805 25.4867 29.3951C25.4917 29.4001 25.5017 29.4151 25.5104 29.4288L25.5166 29.4349C25.5465 29.4748 25.5863 29.5146 25.6262 29.5544L25.6262 29.5545C25.6328 29.5611 25.6379 29.5664 25.6418 29.5706C25.6475 29.5735 25.6554 29.578 25.6661 29.5844C25.686 29.5944 25.7084 29.6068 25.7308 29.6193C25.7533 29.6317 25.7757 29.6442 25.7956 29.6542C25.8008 29.6576 25.8044 29.6604 25.8067 29.6626L25.8106 29.6641C25.823 29.6691 25.8355 29.6741 25.8455 29.6741C25.8753 29.684 25.9052 29.694 25.9351 29.694H26.0846C26.107 29.694 26.1196 29.6949 26.1257 29.6962L26.1344 29.694C26.155 29.6899 26.1739 29.6824 26.1926 29.6749C26.2189 29.6644 26.2447 29.6542 26.2739 29.6542L26.3337 29.6243C26.3437 29.6193 26.3536 29.6118 26.3636 29.6043L26.3636 29.6043L26.3636 29.6043C26.3736 29.5968 26.3835 29.5894 26.3935 29.5844C26.4071 29.5759 26.4161 29.5706 26.4216 29.5676C26.4388 29.5525 26.4554 29.5348 26.4704 29.5186C26.4785 29.5099 26.4861 29.5018 26.4931 29.4947C26.506 29.4883 26.5147 29.4777 26.5246 29.4656C26.5301 29.459 26.5359 29.452 26.543 29.4449C26.5518 29.4361 26.5582 29.4298 26.5627 29.4256C26.574 29.4055 26.5854 29.381 26.5956 29.359C26.6062 29.3362 26.6157 29.3159 26.6227 29.3054C26.628 29.2966 26.6327 29.2902 26.6365 29.286C26.6402 29.2701 26.6426 29.2556 26.6426 29.2556C26.6426 29.2356 26.6725 29.1061 26.6725 29.1061V29.0463L26.6926 29.0597C26.6929 29.0518 26.6936 29.0425 26.6943 29.0325ZM26.5529 28.6477C26.5575 28.6477 26.5621 28.6509 26.5666 28.6561C26.5626 28.6531 26.558 28.6503 26.5529 28.6477ZM26.533 29.4648C26.533 29.4648 26.5428 29.4538 26.5526 29.4424C26.5458 29.4527 26.5392 29.4607 26.533 29.4648ZM18.7252 28.9835C18.7252 28.9995 18.7239 29.0168 18.7227 29.0325L18.7227 29.0327C18.7219 29.0426 18.7212 29.0518 18.7209 29.0597L18.7008 29.0463V29.1061C18.7008 29.1061 18.6709 29.2356 18.6709 29.2556C18.6709 29.2556 18.6685 29.2701 18.6649 29.286C18.661 29.2902 18.6563 29.2966 18.651 29.3054C18.644 29.3159 18.6346 29.3362 18.624 29.359L18.6239 29.359C18.6137 29.3811 18.6023 29.4055 18.5911 29.4256C18.5866 29.4298 18.5801 29.4361 18.5713 29.4449C18.5642 29.452 18.5584 29.459 18.553 29.4656C18.543 29.4777 18.5343 29.4883 18.5215 29.4947C18.5144 29.5018 18.5068 29.5099 18.4988 29.5185L18.4988 29.5186L18.4987 29.5186C18.4837 29.5348 18.4671 29.5526 18.4499 29.5676C18.4444 29.5706 18.4355 29.5759 18.4218 29.5844C18.4119 29.5894 18.4019 29.5968 18.3919 29.6043L18.3919 29.6043C18.382 29.6118 18.372 29.6193 18.362 29.6243L18.3022 29.6542C18.273 29.6542 18.2472 29.6644 18.2209 29.6749C18.2023 29.6824 18.1834 29.6899 18.1627 29.694L18.154 29.6962C18.1479 29.6949 18.1354 29.694 18.1129 29.694H17.9635C17.9336 29.694 17.9037 29.684 17.8738 29.6741C17.8638 29.6741 17.8514 29.6691 17.8389 29.6641L17.8351 29.6626C17.8334 29.661 17.8311 29.6592 17.8281 29.657C17.8268 29.6561 17.8254 29.6552 17.824 29.6542C17.8041 29.6442 17.7817 29.6318 17.7593 29.6193L17.7592 29.6193L17.7591 29.6193C17.7367 29.6068 17.7143 29.5944 17.6944 29.5844C17.6838 29.578 17.6758 29.5735 17.6701 29.5706C17.6662 29.5664 17.6611 29.5611 17.6546 29.5545L17.6545 29.5544C17.6146 29.5146 17.5748 29.4748 17.545 29.4349L17.5388 29.4288C17.53 29.4151 17.52 29.4001 17.5151 29.3951C17.5077 29.3805 17.4978 29.3645 17.4876 29.3482C17.4772 29.3317 17.4666 29.3148 17.4584 29.2985C17.4577 29.2943 17.4567 29.2898 17.4553 29.2855C17.4553 29.2755 17.4503 29.2631 17.4453 29.2506C17.4403 29.2381 17.4353 29.2257 17.4353 29.2157C17.4353 29.1958 17.4254 29.1659 17.4154 29.146L17.4151 29.1447C17.4153 29.1397 17.4154 29.1335 17.4154 29.126V28.9965C17.4154 28.9915 17.4179 28.9766 17.4204 28.9616C17.4229 28.9467 17.4254 28.9317 17.4254 28.9268C17.4254 28.8969 17.4453 28.8072 17.4652 28.7873C17.4652 28.7873 17.4154 28.8969 17.4652 28.8072C17.4702 28.7922 17.4777 28.7798 17.4852 28.7673C17.4926 28.7549 17.5001 28.7424 17.5051 28.7275C17.5101 28.7175 17.5175 28.7075 17.525 28.6976L17.525 28.6976L17.5292 28.692L17.535 28.6876C17.5489 28.6737 17.5627 28.6577 17.5776 28.6406L17.5776 28.6405C17.5948 28.6207 17.6133 28.5994 17.6346 28.578C17.6417 28.5709 17.6487 28.5651 17.6554 28.5597C17.6671 28.55 17.6774 28.5415 17.6839 28.5292C17.7014 28.5202 17.7178 28.5093 17.7343 28.4983C17.7567 28.4833 17.7791 28.4684 17.804 28.4584C17.8147 28.4525 17.8226 28.4479 17.8281 28.4446C17.8398 28.4412 17.8502 28.4385 17.8538 28.4385C17.864 28.4359 17.8762 28.4321 17.8893 28.4279C17.9142 28.42 17.9425 28.4111 17.9675 28.4078C17.972 28.4083 17.9773 28.4086 17.9834 28.4086H18.0033H18.083H18.1627C18.2026 28.4086 18.3122 28.4285 18.3421 28.4584C18.3421 28.4584 18.2325 28.4086 18.3222 28.4584C18.3371 28.4634 18.3496 28.4709 18.362 28.4784C18.3745 28.4858 18.3869 28.4933 18.4019 28.4983C18.4119 28.5033 18.4218 28.5107 18.4318 28.5182C18.4417 28.5257 18.4517 28.5332 18.4617 28.5381C18.4746 28.5511 18.4886 28.564 18.5029 28.5773L18.503 28.5773L18.503 28.5773C18.5328 28.6049 18.5643 28.634 18.5912 28.6677C18.601 28.6774 18.6077 28.6824 18.6118 28.6841C18.616 28.6929 18.6199 28.702 18.6233 28.7101C18.6263 28.717 18.6289 28.7232 18.6311 28.7275C18.641 28.7474 18.651 28.7673 18.6709 28.7873C18.693 28.8093 18.7042 28.8747 18.7125 28.9235L18.7126 28.9235C18.7155 28.9409 18.7181 28.9562 18.7208 28.9666C18.7221 28.9733 18.7236 28.979 18.7252 28.9835ZM18.5812 28.6477C18.5858 28.6477 18.5905 28.6509 18.5949 28.6561C18.5909 28.6531 18.5863 28.6503 18.5812 28.6477ZM18.5613 29.4648C18.5613 29.4648 18.5712 29.4538 18.5809 29.4424C18.5741 29.4527 18.5675 29.4607 18.5613 29.4648ZM16.6575 26.8144C16.6595 26.8144 16.6622 26.8149 16.6652 26.8158L16.6575 26.8144Z" fill="#E77E30"/>
<ellipse cx="17.9495" cy="28.9192" rx="1.9944" ry="1.9944" fill="#E77E30"/>
<ellipse cx="25.927" cy="28.9192" rx="1.9944" ry="1.9944" fill="#E77E30"/>
</svg>
