<svg width="45" height="42" viewBox="0 0 45 42" fill="none" xmlns="http://www.w3.org/2000/svg">
<mask id="mask0_1185_2327" style="mask-type:luminance" maskUnits="userSpaceOnUse" x="0" y="0" width="45" height="42">
<path d="M39.0465 0H5.05345C2.26251 0 0 2.15477 0 4.81281V37.1872C0 39.8452 2.26251 42 5.05345 42H39.0465C41.8375 42 44.1 39.8452 44.1 37.1872V4.81281C44.1 2.15477 41.8375 0 39.0465 0Z" fill="white"/>
</mask>
<g mask="url(#mask0_1185_2327)">
<path d="M26.3039 30.6607C31.9014 25.9774 39.2252 23.1276 47.2605 23.1276C49.0183 23.1276 50.7341 23.2671 52.4186 23.5262C52.4814 22.7489 52.5233 21.9617 52.5233 21.1546C52.5233 5.17171 38.9114 -7.79199 22.1293 -7.79199C5.34724 -7.79199 -8.26465 5.17171 -8.26465 21.1546C-8.26465 22.0215 -8.21234 22.8785 -8.1391 23.7155C-4.4981 22.3304 -0.532762 21.5632 3.6209 21.5632C12.5037 21.5632 20.539 25.0407 26.3039 30.6507V30.6607Z" fill="#DCEAC8"/>
<path d="M15.7791 49.4736C16.7835 42.0103 20.6547 35.3939 26.3045 30.6608C20.5396 25.0608 12.5147 21.5732 3.62148 21.5732C-0.532182 21.5732 -4.49752 22.3405 -8.13852 23.7256C-6.9667 36.48 2.89956 46.8629 15.7791 49.4736Z" fill="#C6DDA5"/>
<path d="M26.3044 30.66C30.887 35.1141 34.0362 40.9134 35.0302 47.3704C44.6558 43.0657 51.5193 34.0978 52.4191 23.5255C50.7451 23.2664 49.0187 23.127 47.261 23.127C39.2257 23.127 31.8914 25.9768 26.3044 30.66Z" fill="#AFD082"/>
<path d="M15.7797 49.4737C17.8304 49.8922 19.9543 50.1115 22.1305 50.1115C26.7446 50.1115 31.1179 49.125 35.031 47.3812C34.037 40.9143 30.8878 35.125 26.3051 30.6709C20.6553 35.404 16.7946 42.0104 15.7797 49.4837V49.4737Z" fill="#AFD082"/>
</g>
<rect x="9.42276" y="12.9639" width="25.1294" height="11.9664" rx="2" fill="#8FBC52"/>
<line x1="21.941" y1="22.9365" x2="21.941" y2="32.9085" stroke="#8FBC52" stroke-width="2"/>
</svg>
