<svg width="42" height="42" viewBox="0 0 42 42" fill="none" xmlns="http://www.w3.org/2000/svg">
<mask id="mask0_1000_2002" style="mask-type:luminance" maskUnits="userSpaceOnUse" x="0" y="0" width="42" height="42">
<path d="M37.1872 0H4.81281C2.15477 0 0 2.15477 0 4.81281V37.1872C0 39.8452 2.15477 42 4.81281 42H37.1872C39.8452 42 42 39.8452 42 37.1872V4.81281C42 2.15477 39.8452 0 37.1872 0Z" fill="white"/>
</mask>
<g mask="url(#mask0_1000_2002)">
<path d="M25.0513 30.6597C30.3823 25.9764 37.3574 23.1266 45.01 23.1266C46.6841 23.1266 48.3182 23.2661 49.9225 23.5252C49.9823 22.748 50.0221 21.9608 50.0221 21.1537C50.0221 5.17073 37.0584 -7.79297 21.0755 -7.79297C5.09261 -7.79297 -7.87109 5.17073 -7.87109 21.1537C-7.87109 22.0206 -7.82127 22.8775 -7.75152 23.7145C-4.28391 22.3295 -0.507392 21.5622 3.44848 21.5622C11.9083 21.5622 19.5609 25.0398 25.0513 30.6497V30.6597Z" fill="#DCEAC8"/>
<path d="M15.0287 49.4726C15.9852 42.0093 19.6721 35.3929 25.0528 30.6598C19.5625 25.0598 11.9198 21.5723 3.45 21.5723C-0.50587 21.5723 -4.28238 22.3395 -7.75 23.7246C-6.63399 36.479 2.76246 46.8619 15.0287 49.4726Z" fill="#C6DDA5"/>
<path d="M25.0508 30.66C29.4152 35.1141 32.4145 40.9134 33.3611 47.3704C42.5284 43.0657 49.065 34.0978 49.922 23.5255C48.3276 23.2664 46.6835 23.127 45.0095 23.127C37.3568 23.127 30.3718 25.9768 25.0508 30.66Z" fill="#AFD082"/>
<path d="M15.0273 49.4728C16.9804 49.8913 19.0031 50.1105 21.0757 50.1105C25.47 50.1105 29.6352 49.124 33.3619 47.3802C32.4152 40.9133 29.416 35.124 25.0515 30.6699C19.6708 35.403 15.9939 42.0094 15.0273 49.4827V49.4728Z" fill="#AFD082"/>
</g>
<g clip-path="url(#clip0_1000_2002)">
<path d="M21.3223 33.4649C28.0543 33.4649 33.5117 28.0075 33.5117 21.2754C33.5117 14.5433 28.0543 9.08594 21.3223 9.08594C14.5902 9.08594 9.13281 14.5433 9.13281 21.2754C9.13281 28.0075 14.5902 33.4649 21.3223 33.4649Z" fill="#EBF6DF"/>
<path d="M33.2898 19.2715C33.4007 19.9368 33.4641 20.6259 33.4641 21.3308C33.4641 27.1998 29.3059 32.0946 23.7695 33.2272" stroke="#8FBC52" stroke-width="1.9801" stroke-linecap="round" stroke-linejoin="round" stroke-dasharray="4.75 4.75"/>
<path d="M21.3236 33.4714C14.615 33.4714 9.18164 28.038 9.18164 21.3294C9.18164 14.6209 14.615 9.1875 21.3236 9.1875C24.6739 9.1875 27.7153 10.5498 29.9093 12.7438" stroke="#8FBC52" stroke-width="2.37611" stroke-linecap="round" stroke-linejoin="round"/>
<path d="M29.5285 12.3955L30.6927 11.3976C31.0888 11.057 31.6986 11.2709 31.7937 11.7857L32.0788 13.2905L32.3639 14.7954C32.459 15.3023 31.9679 15.73 31.4848 15.5558L30.0354 15.0489L28.5859 14.542C28.0949 14.3677 27.9761 13.7341 28.3721 13.3935L29.5364 12.3955H29.5285Z" fill="#8FBC52"/>
<path d="M21.4023 21.2122V15.8105" stroke="#414C38" stroke-width="1.9801" stroke-linecap="round" stroke-linejoin="round"/>
<path d="M21.4824 21.3535L26.1238 25.9869" stroke="#414C38" stroke-width="1.9801" stroke-linecap="round" stroke-linejoin="round"/>
</g>
<defs>
<clipPath id="clip0_1000_2002">
<rect width="26.462" height="26.66" fill="white" transform="translate(7.99219 8)"/>
</clipPath>
</defs>
</svg>
