<svg width="42" height="42" viewBox="0 0 42 42" fill="none" xmlns="http://www.w3.org/2000/svg">
<mask id="mask0_1000_2003" style="mask-type:luminance" maskUnits="userSpaceOnUse" x="0" y="0" width="42" height="42">
<path d="M37.1872 0H4.81281C2.15477 0 0 2.15477 0 4.81281V37.1872C0 39.8452 2.15477 42 4.81281 42H37.1872C39.8452 42 42 39.8452 42 37.1872V4.81281C42 2.15477 39.8452 0 37.1872 0Z" fill="white"/>
</mask>
<g mask="url(#mask0_1000_2003)">
<path d="M25.0513 30.6597C30.3823 25.9764 37.3574 23.1266 45.01 23.1266C46.6841 23.1266 48.3182 23.2661 49.9225 23.5252C49.9823 22.748 50.0221 21.9608 50.0221 21.1537C50.0221 5.17073 37.0584 -7.79297 21.0755 -7.79297C5.09261 -7.79297 -7.87109 5.17073 -7.87109 21.1537C-7.87109 22.0206 -7.82127 22.8775 -7.75152 23.7145C-4.28391 22.3295 -0.507392 21.5622 3.44848 21.5622C11.9083 21.5622 19.5609 25.0398 25.0513 30.6497V30.6597Z" fill="#FEF4E1"/>
<path d="M15.0287 49.4726C15.9852 42.0093 19.6721 35.3929 25.0528 30.6598C19.5625 25.0598 11.9198 21.5723 3.45 21.5723C-0.50587 21.5723 -4.28238 22.3395 -7.75 23.7246C-6.63399 36.479 2.76246 46.8619 15.0287 49.4726Z" fill="#F7CB8A"/>
<path d="M25.0508 30.66C29.4152 35.1141 32.4145 40.9134 33.3611 47.3704C42.5284 43.0657 49.065 34.0978 49.922 23.5255C48.3276 23.2664 46.6835 23.127 45.0095 23.127C37.3568 23.127 30.3718 25.9768 25.0508 30.66Z" fill="#F3B860"/>
<path d="M15.0273 49.4728C16.9804 49.8913 19.0031 50.1105 21.0757 50.1105C25.47 50.1105 29.6352 49.124 33.3619 47.3802C32.4152 40.9133 29.416 35.124 25.0515 30.6699C19.6708 35.403 15.9939 42.0094 15.0273 49.4827V49.4728Z" fill="#F3B860"/>
</g>
<g clip-path="url(#clip0_1000_2003)">
<path d="M22 22H20V29H22V22Z" fill="#F3B860"/>
<path d="M19.5014 15.1087C22.1548 17.7512 21.5624 22.632 21.5624 22.632C21.5624 22.632 16.6614 23.2219 14.0081 20.5794C11.3547 17.937 11.9471 13.0562 11.9471 13.0562C11.9471 13.0562 16.8481 12.4663 19.5014 15.1087Z" fill="#F3B860"/>
<path d="M23.2093 15.1087C20.5559 17.7512 21.1482 22.632 21.1482 22.632C21.1482 22.632 26.0492 23.2219 28.7026 20.5794C31.356 17.937 30.7636 13.0562 30.7636 13.0562C30.7636 13.0562 25.8626 12.4663 23.2093 15.1087Z" fill="#F77800"/>
<path d="M32.7017 28.2227H10.2983C9.58126 28.2227 9 28.8015 9 29.5156V31.7055C9 32.4195 9.58126 32.9984 10.2983 32.9984H32.7017C33.4187 32.9984 34 32.4195 34 31.7055V29.5156C34 28.8015 33.4187 28.2227 32.7017 28.2227Z" fill="#F77800"/>
</g>
<defs>
<clipPath id="clip0_1000_2003">
<rect width="25" height="20" fill="white" transform="translate(9 13)"/>
</clipPath>
</defs>
</svg>
