<svg width="13" height="28" viewBox="0 0 13 28" fill="none" xmlns="http://www.w3.org/2000/svg">
<g filter="url(#filter0_d_1000_1790)">
<path d="M6.5 5C5.675 5 5 5.675 5 6.5C5 7.325 5.675 8 6.5 8C7.325 8 8 7.325 8 6.5C8 5.675 7.325 5 6.5 5ZM6.5 20C5.675 20 5 20.675 5 21.5C5 22.325 5.675 23 6.5 23C7.325 23 8 22.325 8 21.5C8 20.675 7.325 20 6.5 20ZM6.5 12.5C5.675 12.5 5 13.175 5 14C5 14.825 5.675 15.5 6.5 15.5C7.325 15.5 8 14.825 8 14C8 13.175 7.325 12.5 6.5 12.5Z" fill="white"/>
</g>
<defs>
<filter id="filter0_d_1000_1790" x="0" y="0" width="13" height="28" filterUnits="userSpaceOnUse" color-interpolation-filters="sRGB">
<feFlood flood-opacity="0" result="BackgroundImageFix"/>
<feColorMatrix in="SourceAlpha" type="matrix" values="0 0 0 0 0 0 0 0 0 0 0 0 0 0 0 0 0 0 127 0" result="hardAlpha"/>
<feOffset/>
<feGaussianBlur stdDeviation="2.5"/>
<feComposite in2="hardAlpha" operator="out"/>
<feColorMatrix type="matrix" values="0 0 0 0 0 0 0 0 0 0 0 0 0 0 0 0 0 0 1 0"/>
<feBlend mode="normal" in2="BackgroundImageFix" result="effect1_dropShadow_1000_1790"/>
<feBlend mode="normal" in="SourceGraphic" in2="effect1_dropShadow_1000_1790" result="shape"/>
</filter>
</defs>
</svg>
